<?xml version="1.0" encoding="UTF-8" standalone="no"?>
<!-- Created with Inkscape (http://www.inkscape.org/) -->

<svg
   xmlns:dc="http://purl.org/dc/elements/1.1/"
   xmlns:cc="http://creativecommons.org/ns#"
   xmlns:rdf="http://www.w3.org/1999/02/22-rdf-syntax-ns#"
   xmlns:svg="http://www.w3.org/2000/svg"
   xmlns="http://www.w3.org/2000/svg"
   version="1.1"
   width="601"
   height="601"
   id="svg2993">
  <defs
     id="defs2995" />
  <metadata
     id="metadata2998">
    <rdf:RDF>
      <cc:Work
         rdf:about="">
        <dc:format>image/svg+xml</dc:format>
        <dc:type
           rdf:resource="http://purl.org/dc/dcmitype/StillImage" />
        <dc:title></dc:title>
      </cc:Work>
    </rdf:RDF>
  </metadata>
  <g
     transform="translate(0.5,-451.875)"
     id="layer1">
    <g
       id="g3873">
      <rect
         width="600"
         height="600"
         rx="37.5"
         ry="37.5"
         x="0"
         y="452.36218"
         id="rect3001"
         style="color:#000000;fill:#ffffff;fill-opacity:1;fill-rule:nonzero;stroke:#000000;stroke-width:1;stroke-miterlimit:4;stroke-opacity:1;stroke-dasharray:none;marker:none;visibility:visible;display:inline;overflow:visible;enable-background:accumulate" />
      <rect
         width="581.25"
         height="581.25"
         rx="28.125"
         ry="28.125"
         x="9.375"
         y="461.73718"
         id="rect3771"
         style="color:#000000;fill:#000000;fill-opacity:1;fill-rule:nonzero;stroke:none;stroke-width:3;marker:none;visibility:visible;display:inline;overflow:visible;enable-background:accumulate" />
      <path
         d="m 37.5,477.36218 525,0 c 6.925,0 12.5,5.575 12.5,12.5 l 0,254.6875 c 0,-0.01 0,0 0,0 l -550,0 0,0 0,-254.6875 c 0,-6.925 5.575,-12.5 12.5,-12.5 z"
         id="rect4"
         style="fill:#002868" />
      <path
         d="m 25,566.42468 550,0 0,89.0625 -550,0 z"
         id="rect6"
         style="fill:#ffffff" />
      <path
         d="m 276.82422,644.35438 a 89.0625,89.0625 0 1 1 0,-66.7969 l -82.60547,33.3985"
         id="path8"
         style="fill:#bf0a30" />
      <path
         d="m 238.75,610.95593 c 0,24.59393 -19.93732,44.53125 -44.53125,44.53125 -24.59393,0 -44.53125,-19.93732 -44.53125,-44.53125 0,-24.59393 19.93732,-44.53125 44.53125,-44.53125 24.59393,0 44.53125,19.93732 44.53125,44.53125 z"
         id="circle10"
         style="fill:#ffd700" />
      <path
         d="m 37.5,1027.375 525,0 c 6.925,0 12.5,-5.575 12.5,-12.5 l 0,-254.68752 c 0,0.01 0,0 0,0 l -550,0 0,0 0,254.68752 c 0,6.925 5.575,12.5 12.5,12.5 z"
         id="path3817"
         style="fill:#ffffff;fill-opacity:1" />
    </g>
    <g
       id="text3889"
       style="font-size:298.50747681px;font-style:normal;font-variant:normal;font-weight:normal;font-stretch:normal;text-align:center;line-height:100%;letter-spacing:0px;word-spacing:0px;writing-mode:lr-tb;text-anchor:middle;fill:#000000;fill-opacity:1;stroke:none;font-family:Roadgeek 2005 Series C;-inkscape-font-specification:Roadgeek 2005 Series C">
      <path
         d="m 381.04479,826.19589 c -3.38325,3.18424 -6.16932,5.8708 -8.35821,8.0597 -2.18921,1.9902 -4.07976,3.88075 -5.67164,5.67164 -1.59219,1.7912 -2.98523,3.48274 -4.1791,5.07463 -1.19418,1.39318 -2.38821,3.08472 -3.58209,5.07463 -6.76631,9.15436 -13.13447,19.90061 -19.10448,32.2388 -5.77127,12.1394 -10.64689,24.07969 -14.62687,35.8209 -1.99016,5.97022 -3.6817,11.74136 -5.07463,17.31343 -1.19413,5.37319 -2.28866,10.94532 -3.28358,16.71642 -0.79612,5.57218 -1.39314,11.44282 -1.79104,17.61194 -0.39812,6.16917 -0.69662,13.03484 -0.89552,20.59702 l -35.8209,0 c 0.19894,-7.56218 0.39794,-14.32834 0.59701,-20.29851 0.39794,-6.16913 0.89546,-12.03977 1.49254,-17.61194 0.79595,-5.5721 1.69147,-11.04473 2.68657,-16.41791 1.19395,-5.37308 2.58699,-11.14421 4.1791,-17.31343 3.58201,-12.53723 7.76111,-24.47752 12.53732,-35.8209 4.97503,-11.54217 10.44766,-22.28843 16.41791,-32.23881 1.59193,-3.18394 3.58198,-6.56702 5.97015,-10.14925 2.38794,-3.58194 5.77102,-8.55706 10.14925,-14.92538 l -113.13433,0 -0.59702,-35.22388 162.08956,0 0,35.8209 0,0"
         id="path4045"
         style="fill:#000000;font-family:Roadgeek 2005 Series E;-inkscape-font-specification:Roadgeek 2005 Series E" />
    </g>
  </g>
</svg>
