<?xml version="1.0" encoding="UTF-8" standalone="no"?>
<!-- Created with Inkscape (http://www.inkscape.org/) -->

<svg
   xmlns:dc="http://purl.org/dc/elements/1.1/"
   xmlns:cc="http://creativecommons.org/ns#"
   xmlns:rdf="http://www.w3.org/1999/02/22-rdf-syntax-ns#"
   xmlns:svg="http://www.w3.org/2000/svg"
   xmlns="http://www.w3.org/2000/svg"
   xmlns:sodipodi="http://sodipodi.sourceforge.net/DTD/sodipodi-0.dtd"
   xmlns:inkscape="http://www.inkscape.org/namespaces/inkscape"
   width="200"
   height="200"
   viewBox="0 0 52.916665 52.916668"
   version="1.1"
   id="svg8"
   inkscape:version="0.92.3 (2405546, 2018-03-11)"
   sodipodi:docname="fm1938.svg">
  <defs
     id="defs2" />
  <sodipodi:namedview
     id="base"
     pagecolor="#ffffff"
     bordercolor="#666666"
     borderopacity="1.0"
     inkscape:pageopacity="0.0"
     inkscape:pageshadow="2"
     inkscape:zoom="1.4142136"
     inkscape:cx="-30.832776"
     inkscape:cy="31.36404"
     inkscape:document-units="mm"
     inkscape:current-layer="layer1"
     showgrid="false"
     units="px"
     inkscape:pagecheckerboard="true"
     inkscape:window-width="1280"
     inkscape:window-height="927"
     inkscape:window-x="0"
     inkscape:window-y="27"
     inkscape:window-maximized="1"
     inkscape:snap-text-baseline="true"
     inkscape:snap-bbox="true"
     inkscape:bbox-nodes="true"
     inkscape:snap-nodes="false">
    <inkscape:grid
       type="xygrid"
       id="grid10" />
  </sodipodi:namedview>
  <metadata
     id="metadata5">
    <rdf:RDF>
      <cc:Work
         rdf:about="">
        <dc:format>image/svg+xml</dc:format>
        <dc:type
           rdf:resource="http://purl.org/dc/dcmitype/StillImage" />
        <dc:title></dc:title>
      </cc:Work>
    </rdf:RDF>
  </metadata>
  <g
     inkscape:label="Layer 1"
     inkscape:groupmode="layer"
     id="layer1"
     transform="translate(0,-244.08332)">
    <g
       style="stroke-width:2.13333344"
       id="g3"
       transform="matrix(0.12402344,0,0,0.12402344,2.6458334,246.72915)">
      <g
         style="stroke-width:2.13333344"
         id="g5">
        <path
           style="stroke-width:2.13333344"
           inkscape:connector-curvature="0"
           d="M 0,24 C 0,10.745117 10.745117,0 24,0 h 336 c 13.25488,0 24,10.745117 24,24 v 336 c 0,13.25488 -10.74512,24 -24,24 H 24 C 10.745117,384 0,373.25488 0,360 Z"
           id="path7" />
        <path
           style="stroke-width:2.13333344"
           inkscape:connector-curvature="0"
           d="M 192,192"
           id="path9" />
      </g>
      <path
         style="clip-rule:evenodd;fill:#ffffff;fill-rule:evenodd;stroke-width:2.13333344"
         inkscape:connector-curvature="0"
         d="m 364.94336,183.63428 c -0.5918,-3.45996 -3.6875,-7.70948 -6.68066,-9.51514 -0.92969,-6.70605 -5.06446,-12.74805 -11.1045,-15.85791 l -4.30078,-48.47754 c -5.24609,-0.52197 -10.25293,-1.39502 -15.4043,-2.4917 l -2.15332,-0.5664 -1.47363,-1.24659 -1.69726,-1.13086 -1.69922,-1.01953 -1.8125,-0.90869 -1.92578,-0.79053 -1.8086,-0.56738 -2.04101,-0.45215 -1.92676,-0.34082 -2.03711,-0.22656 h -2.03809 l -1.92578,0.11475 -2.04199,0.33789 -1.9248,0.33935 -1.92676,0.56885 -0.11231,0.11231 c -4.4541,2.57666 -11,4.86767 -16.08203,5.6621 -5.52441,-4.28222 -13.52148,-5.20507 -19.82324,-2.15087 v -0.1128 c -9.33106,2.04102 -19.48926,-0.49218 -26.84473,-6.571775 v 0.116211 c -8.49218,1.391602 -17.41601,0.06348 -25.14648,-3.741211 l -2.03613,-1.128906 -0.79493,-1.019531 -1.01855,-0.90625 -1.13086,-0.566407 c -2.00781,-1.091797 -4.4707,-0.480468 -6.23047,0.790528 v -0.112305 c -3.36523,-2.496582 -7.5376,-4.126465 -11.77881,-3.850586 l -2.60595,-58.219238 -75.54883,1.24707 v 136.59668 l -91.407229,-1.35938 c 2.069824,13.36622 11.424316,25.28809 23.788085,30.69483 l -0.114257,0.11328 c 6.883789,2.63477 14.141113,9.00391 17.896484,15.28906 2.678711,3.68067 4.203613,8.33985 5.437012,12.68946 0.758301,5.40918 2.108398,10.07812 4.870605,14.83789 4.460449,8.05859 11.903809,14.22558 20.500977,17.44336 l 1.812988,0.56347 1.810547,1.70117 2.039063,1.35743 2.152343,1.01855 2.380372,0.56934 2.49023,0.22363 2.37891,-0.22363 2.37891,-0.56934 2.26464,-0.90332 2.03809,-1.35937 1.81494,-1.58692 1.47119,-1.9248 h 0.11328 c 0.10645,-8.09375 4.51661,-15.35059 11.89161,-18.80274 h -0.11328 c 16.104,-3.58203 33.75976,3.5752 42.59033,17.55762 l 0.11377,-0.11328 c 8.16943,18.98828 20.97168,37.48828 35.56445,52.21387 h -0.11328 c 2.73633,13.19238 7.53906,23.99902 15.85742,34.65918 8.28809,1.15234 17.82324,5.14062 24.57813,10.08203 6.77148,-1.84571 13.4375,-0.60743 19.36718,3.05859 v -0.11328 c 4.71289,4.47656 12.83887,1.12109 13.14258,-5.32422 l -0.11719,0.11426 c -12.11132,-15.07324 -14.79687,-35.39649 -7.01953,-53.12207 2.28711,-4.76758 4.75781,-8.81641 8.2666,-12.79883 3.89258,-4.54688 4.42286,-4.03809 9.29004,-7.25195 10.67578,-6.64356 21.37207,-13.24024 32.16602,-19.70703 h -0.11328 c 5.22558,0.18164 8.15039,-6.14454 4.86914,-10.08008 h 0.11719 l -1.36036,-1.58594 -0.45312,-2.03906 0.45312,-2.03711 1.24317,-1.70215 1.92578,-0.90527 2.03906,0.11523 1.92578,0.90527 1.2461,1.69825 0.33984,2.03906 c 7.49023,-6.00586 15.78711,-10.98828 24.58106,-14.83789 v -0.11328 l 0.90429,-1.92578 0.90625,-2.03711 1.35938,-4.07813 0.5664,-2.15039 0.45118,-2.15332 0.68261,-4.30371 -1.36328,-6.34277 -0.44922,-1.58692 -0.34375,-1.58594 -0.90332,-3.17187 c 4.24805,-3.82715 6.15723,-9.45996 4.87012,-15.06201 z"
         id="path11" />
      <g
         style="stroke-width:2.13333344"
         id="g13">
        <path
           style="clip-rule:evenodd;fill:#ffffff;fill-rule:evenodd;stroke-width:2.13333344"
           inkscape:connector-curvature="0"
           d="m 68.243652,339.44629 -4.97998,-13.46289 h -5.855957 v 13.46289 h -4.887696 v -30.89258 h 10.19043 c 1.198731,0 2.228516,0.0684 3.089356,0.20703 0.86084,0.13867 1.675293,0.39258 2.443847,0.76074 0.67627,0.33887 1.298828,0.77637 1.867188,1.31446 0.568848,0.53808 1.060547,1.15234 1.475586,1.84472 0.415039,0.69141 0.737793,1.42872 0.968261,2.21289 0.230469,0.78321 0.345704,1.56055 0.345704,2.32813 0,0.83008 -0.115235,1.63672 -0.345704,2.4209 -0.230468,0.78418 -0.553222,1.52148 -0.968261,2.21387 -0.415039,0.6914 -0.922364,1.31347 -1.521485,1.86718 -0.599609,0.55274 -1.252441,0.9834 -1.959472,1.29102 l 5.440429,14.43164 z m -0.230468,-22.22461 c 0,-0.64551 -0.169434,-1.25977 -0.507325,-1.84375 -0.33789,-0.58398 -0.814453,-1.04492 -1.429687,-1.38379 -0.399414,-0.21484 -0.768066,-0.36035 -1.106445,-0.43848 -0.337891,-0.0762 -0.906739,-0.11523 -1.706055,-0.11523 h -5.855957 v 7.5625 h 5.855957 c 0.768555,0 1.32959,-0.0312 1.683105,-0.0918 0.353516,-0.0625 0.729981,-0.20019 1.129395,-0.41601 0.615234,-0.33789 1.091797,-0.80664 1.429687,-1.40625 0.337891,-0.59864 0.507325,-1.22071 0.507325,-1.86719 z"
           id="path15" />
        <path
           style="clip-rule:evenodd;fill:#ffffff;fill-rule:evenodd;stroke-width:2.13333344"
           inkscape:connector-curvature="0"
           d="m 100.00684,324.0459 c 0,2.45898 -0.291996,4.81055 -0.876469,7.05469 -0.583984,2.24414 -1.413574,4.05859 -2.489746,5.4414 C 94.919434,338.84668 92.429199,340 89.170898,340 c -2.182617,0 -3.980468,-0.44629 -5.394531,-1.33691 -1.414062,-0.89161 -2.582519,-2.29004 -3.504394,-4.19629 -0.645508,-1.32129 -1.168457,-2.92774 -1.567872,-4.81836 -0.399414,-1.89063 -0.599609,-3.75782 -0.599609,-5.60254 0,-2.55078 0.299805,-4.91797 0.899414,-7.10059 0.59961,-2.18261 1.421387,-4.01172 2.466797,-5.4873 0.922363,-1.16797 2.020996,-2.03614 3.296875,-2.60547 C 86.042969,308.28418 87.572266,308 89.355469,308 c 1.967285,0 3.642578,0.44629 5.025879,1.33691 1.3833,0.89161 2.566894,2.29102 3.550293,4.19629 0.645507,1.38379 1.152832,2.99707 1.521484,4.84082 0.369141,1.84571 0.553715,3.73535 0.553715,5.67188 z m -4.887699,0 c 0,-1.75195 -0.153809,-3.37305 -0.460938,-4.86426 -0.307617,-1.49121 -0.768555,-2.75879 -1.383789,-3.80371 -0.491699,-0.79981 -1.052734,-1.38379 -1.682617,-1.75195 -0.630371,-0.36914 -1.40625,-0.58399 -2.328614,-0.64649 -1.19873,-0.0605 -2.197753,0.21485 -2.99707,0.83008 -0.799316,0.61523 -1.459961,1.61426 -1.98291,2.99805 -0.399414,0.92187 -0.699219,2.03613 -0.898926,3.34179 -0.199707,1.30664 -0.299805,2.60547 -0.299805,3.89649 0,1.66015 0.153809,3.25879 0.460938,4.79492 0.307617,1.53711 0.768555,2.79785 1.383301,3.78125 0.492187,0.79981 1.076172,1.39844 1.752441,1.79883 0.67627,0.39941 1.506348,0.59961 2.489746,0.59961 1.137207,0 2.08252,-0.30762 2.835938,-0.92188 0.752929,-0.61523 1.390625,-1.61425 1.913574,-2.99804 0.153809,-0.39942 0.307129,-0.88282 0.460937,-1.45215 0.153809,-0.56934 0.28418,-1.16797 0.39209,-1.79785 0.107422,-0.63086 0.191895,-1.26856 0.253418,-1.91407 0.06152,-0.6455 0.09229,-1.27539 0.09229,-1.89062 z"
           id="path17" />
        <path
           style="clip-rule:evenodd;fill:#ffffff;fill-rule:evenodd;stroke-width:2.13333344"
           inkscape:connector-curvature="0"
           d="m 125.0752,339.44629 -3.04297,-8.66797 h -9.63672 l -3.04346,8.66797 h -5.21045 l 10.65137,-30.89258 h 4.8418 l 10.65136,30.89258 z m -7.792,-22.31641 -3.18164,8.66797 h 6.17871 z"
           id="path19" />
        <path
           style="clip-rule:evenodd;fill:#ffffff;fill-rule:evenodd;stroke-width:2.13333344"
           inkscape:connector-curvature="0"
           d="m 156,323.9541 c 0,3.10449 -0.46875,5.83203 -1.40625,8.1836 -0.9375,2.35253 -2.28223,4.2041 -4.03467,5.55664 -0.58398,0.55371 -1.26806,0.96875 -2.05176,1.24511 -0.78369,0.27637 -1.57519,0.44629 -2.37451,0.50684 h -1.75195 -9.40674 v -30.89258 h 9.95996 c 0.76856,0 1.43701,0.0225 2.00537,0.0684 0.56885,0.0469 1.08399,0.13086 1.54492,0.25391 0.46094,0.12304 0.87598,0.29199 1.24512,0.50781 0.36865,0.21484 0.76856,0.47656 1.19873,0.7832 1.6294,1.41406 2.88184,3.29688 3.75782,5.64844 0.87597,2.35156 1.31396,5.06445 1.31396,8.13867 z m -4.97949,0 c 0,-2.08984 -0.22315,-3.95019 -0.66895,-5.58008 -0.44531,-1.6289 -1.05273,-2.84277 -1.82129,-3.64257 -0.39941,-0.36817 -0.86035,-0.67579 -1.3833,-0.92188 -0.52246,-0.24609 -1.10644,-0.36914 -1.75195,-0.36914 h -5.5332 v 21.02637 h 4.88769 c 0.79932,0 1.46778,-0.0928 2.00586,-0.27637 0.5376,-0.18457 1.02197,-0.49219 1.45215,-0.92188 0.92236,-0.92285 1.62158,-2.19042 2.09814,-3.80468 0.47657,-1.61328 0.71485,-3.4502 0.71485,-5.50977 z"
           id="path21" />
      </g>
      <g
         style="stroke-width:2.13333344"
         id="g23">
        <polygon
           style="clip-rule:evenodd;fill:#ffffff;fill-rule:evenodd;stroke-width:2.13333344"
           points="232.8877,33.440918 232.8877,41.00293 241.87891,41.00293 241.87891,45.98291 232.8877,45.98291 232.8877,59.446777 228,59.446777 228,28.553223 247.18164,28.553223 247.18164,33.440918 "
           id="polygon25" />
        <path
           style="clip-rule:evenodd;fill:#ffffff;fill-rule:evenodd;stroke-width:2.13333344"
           inkscape:connector-curvature="0"
           d="m 269.97461,59.446777 -3.04395,-8.668457 h -9.63671 L 254.25,59.446777 h -5.20996 l 10.65137,-30.893554 h 4.84179 l 10.65039,30.893554 z M 262.18164,37.129883 259,45.79834 h 6.17871 z"
           id="path27" />
        <path
           style="clip-rule:evenodd;fill:#ffffff;fill-rule:evenodd;stroke-width:2.13333344"
           inkscape:connector-curvature="0"
           d="M 295.5957,59.446777 290.61621,45.98291 h -5.85644 v 13.463867 h -4.88672 V 28.553223 h 10.18945 c 1.19922,0 2.22852,0.06934 3.08984,0.207519 0.86036,0.138672 1.67579,0.39209 2.44336,0.760742 0.67676,0.338379 1.29883,0.776368 1.86719,1.314453 0.56934,0.537598 1.06055,1.152344 1.47656,1.844239 0.41407,0.691406 0.73731,1.429199 0.96778,2.213379 0.23047,0.783691 0.3457,1.560058 0.3457,2.328125 0,0.830078 -0.11523,1.637207 -0.3457,2.420898 -0.23047,0.78418 -0.55371,1.521973 -0.96778,2.213379 -0.41601,0.691894 -0.92285,1.313965 -1.52148,1.867676 -0.59961,0.553223 -1.25293,0.983398 -1.95996,1.291015 l 5.44043,14.432129 H 295.5957 Z M 295.36523,37.22168 c 0,-0.645508 -0.16894,-1.260254 -0.50683,-1.844239 -0.33887,-0.583984 -0.81445,-1.044921 -1.42969,-1.3833 -0.39941,-0.214844 -0.76855,-0.36084 -1.10644,-0.437989 -0.33789,-0.07666 -0.90625,-0.115234 -1.70606,-0.115234 h -5.85644 v 7.562012 h 5.85644 c 0.76856,0 1.3291,-0.03076 1.68262,-0.09229 0.35351,-0.06152 0.73047,-0.199707 1.12988,-0.415039 0.61524,-0.33789 1.09082,-0.80664 1.42969,-1.40625 0.33789,-0.599121 0.50683,-1.221679 0.50683,-1.867675 z"
           id="path29" />
        <polygon
           style="clip-rule:evenodd;fill:#ffffff;fill-rule:evenodd;stroke-width:2.13333344"
           points="306.10254,28.553223 310.99023,28.553223 318.13672,45.890625 325.28418,28.553223 330.17188,28.553223 330.17188,59.446777 325.28418,59.446777 325.28418,41.556152 318.13672,59.446777 310.99023,41.556152 310.99023,59.446777 306.10254,59.446777 "
           id="polygon31" />
      </g>
    </g>
    <g
       aria-label="1938"
       style="font-size:2.05542278px;line-height:1.25;font-family:'DejaVu Sans';-inkscape-font-specification:'DejaVu Sans';letter-spacing:0px;word-spacing:0px;stroke-width:0.26458332"
       id="text32">
      <path
         d="m 20.042943,271.89636 v -5.95216 h -1.257876 v -0.84572 q 0.278339,0 0.519208,-0.0428 0.24087,-0.0428 0.433566,-0.14452 0.198049,-0.1017 0.342571,-0.26764 0.144522,-0.17128 0.224812,-0.42286 h 0.877836 v 7.67572 z"
         style="font-style:normal;font-variant:normal;font-weight:normal;font-stretch:normal;font-size:10.96225452px;font-family:Overpass;-inkscape-font-specification:Overpass;stroke-width:0.26458332"
         id="path110" />
      <path
         d="m 24.715818,270.8633 q 0.438919,-0.0214 0.861779,-0.13917 0.42286,-0.12311 0.781489,-0.39075 0.358628,-0.26763 0.620909,-0.7119 0.267633,-0.44962 0.390744,-1.13476 -0.08564,0.0963 -0.230164,0.19804 -0.139169,0.1017 -0.331865,0.18199 -0.192696,0.0803 -0.438919,0.13382 -0.24087,0.0482 -0.524561,0.0482 -0.535266,0 -0.990242,-0.17664 -0.449624,-0.17664 -0.781489,-0.4978 -0.326513,-0.32651 -0.513856,-0.78684 -0.181991,-0.46033 -0.181991,-1.02771 0,-0.55133 0.192696,-1.0063 0.198049,-0.45498 0.545972,-0.77614 0.353276,-0.32651 0.840368,-0.50315 0.492445,-0.18199 1.086591,-0.18199 0.690493,0 1.188291,0.23016 0.50315,0.22482 0.829663,0.62091 0.326512,0.3961 0.48174,0.94207 0.155227,0.54597 0.155227,1.17759 0,1.07588 -0.24087,1.96978 -0.24087,0.88854 -0.733315,1.54156 -0.487092,0.64768 -1.241818,1.02772 -0.749373,0.38003 -1.766379,0.42821 z m 1.316755,-2.98144 q 0.326513,0 0.594146,-0.091 0.272986,-0.091 0.460329,-0.26228 0.192696,-0.17664 0.294397,-0.42286 0.107053,-0.24622 0.107053,-0.55668 0,-0.29439 -0.107053,-0.53526 -0.107054,-0.24087 -0.29975,-0.40681 -0.192695,-0.17128 -0.460329,-0.26228 -0.26228,-0.091 -0.578087,-0.091 -0.32116,0 -0.588793,0.091 -0.267633,0.091 -0.460329,0.26228 -0.192696,0.16594 -0.299749,0.41216 -0.107054,0.24087 -0.107054,0.54062 0,0.3158 0.101701,0.56203 0.101701,0.24622 0.289044,0.4175 0.192696,0.16594 0.454976,0.25693 0.267633,0.0856 0.599498,0.0856 z"
         style="font-style:normal;font-variant:normal;font-weight:normal;font-stretch:normal;font-size:10.96225452px;font-family:Overpass;-inkscape-font-specification:Overpass;stroke-width:0.26458332"
         id="path112" />
      <path
         d="m 32.637759,272.03018 q -0.508503,0 -0.936716,-0.12847 -0.42286,-0.12311 -0.760078,-0.35327 -0.337218,-0.23552 -0.588793,-0.55668 -0.251575,-0.32651 -0.412155,-0.72796 l 1.06518,-0.42821 q 0.133817,0.29975 0.310455,0.5085 0.18199,0.20875 0.396097,0.34257 0.214106,0.12846 0.449623,0.18734 0.235518,0.0589 0.476387,0.0589 0.310455,0 0.583441,-0.0696 0.272986,-0.0749 0.476387,-0.22481 0.203401,-0.15523 0.32116,-0.39075 0.123111,-0.23552 0.123111,-0.56738 0,-0.25158 -0.08564,-0.47103 -0.08029,-0.22482 -0.26228,-0.39075 -0.176638,-0.17128 -0.454977,-0.26763 -0.278338,-0.0963 -0.669083,-0.0963 h -0.588793 v -1.0973 h 0.588793 q 0.267634,0 0.48174,-0.0749 0.219459,-0.0803 0.374687,-0.21411 0.155227,-0.13917 0.240869,-0.32651 0.08564,-0.1927 0.08564,-0.42286 0,-0.53527 -0.310454,-0.82967 -0.305102,-0.29974 -0.904601,-0.29974 -0.272985,0 -0.487092,0.0749 -0.214106,0.0696 -0.380039,0.18735 -0.16058,0.11775 -0.283691,0.27833 -0.123111,0.15523 -0.208754,0.32116 l -1.059827,-0.40145 q 0.133816,-0.34792 0.358628,-0.63161 0.230165,-0.28904 0.535266,-0.49245 0.310455,-0.20875 0.701199,-0.32115 0.390745,-0.11241 0.856426,-0.11241 0.519209,0 0.952775,0.17128 0.438918,0.16594 0.754725,0.45498 0.315807,0.28904 0.487092,0.67444 0.176638,0.38004 0.176638,0.8136 0,0.53527 -0.246222,0.97419 -0.24087,0.43356 -0.74402,0.69049 0.289043,0.11776 0.524561,0.28904 0.235517,0.16594 0.401449,0.3854 0.165933,0.21945 0.256928,0.49244 0.09099,0.27299 0.09099,0.5995 0,0.57809 -0.203401,1.02771 -0.203401,0.44427 -0.562029,0.74937 -0.358629,0.3051 -0.851074,0.46033 -0.492445,0.15523 -1.070533,0.15523 z"
         style="font-style:normal;font-variant:normal;font-weight:normal;font-stretch:normal;font-size:10.96225452px;font-family:Overpass;-inkscape-font-specification:Overpass;stroke-width:0.26458332"
         id="path114" />
      <path
         d="m 39.408878,272.03018 q -0.594145,0 -1.08659,-0.17664 -0.487093,-0.17664 -0.840368,-0.49244 -0.347923,-0.32116 -0.540619,-0.75473 -0.187344,-0.43892 -0.187344,-0.95813 0,-0.35327 0.091,-0.64767 0.09635,-0.29975 0.26228,-0.54062 0.171285,-0.24087 0.406803,-0.42821 0.240869,-0.1927 0.524561,-0.33187 -0.454977,-0.25692 -0.706552,-0.64767 -0.246222,-0.39074 -0.246222,-0.95277 0,-0.42822 0.165932,-0.7922 0.165933,-0.36933 0.471035,-0.63696 0.305101,-0.27299 0.733314,-0.42286 0.428213,-0.15523 0.952774,-0.15523 0.524561,0 0.952775,0.15523 0.433565,0.14987 0.738667,0.42286 0.305102,0.26763 0.471034,0.63696 0.171286,0.36398 0.171286,0.7922 0,0.55132 -0.251575,0.94207 -0.251576,0.39074 -0.711905,0.65837 0.289044,0.13917 0.524561,0.33187 0.235517,0.18734 0.406803,0.42821 0.171285,0.24087 0.26228,0.54062 0.09635,0.2944 0.09635,0.64767 0,0.51921 -0.192696,0.95813 -0.192696,0.43357 -0.540619,0.75473 -0.347923,0.3158 -0.840368,0.49244 -0.492445,0.17664 -1.086591,0.17664 z m 0,-1.0973 q 0.32116,0 0.588793,-0.0964 0.272986,-0.0963 0.465682,-0.26763 0.198049,-0.17664 0.310455,-0.41751 0.112406,-0.24622 0.112406,-0.53526 0,-0.27834 -0.112406,-0.52456 -0.112406,-0.25158 -0.310455,-0.43357 -0.192696,-0.18734 -0.465682,-0.2944 -0.267633,-0.10705 -0.588793,-0.10705 -0.326512,0 -0.599498,0.10705 -0.267633,0.10706 -0.465682,0.2944 -0.192695,0.18199 -0.299749,0.43357 -0.107053,0.24622 -0.107053,0.52456 0,0.28904 0.107053,0.53526 0.107054,0.24087 0.299749,0.41751 0.198049,0.17129 0.465682,0.26763 0.272986,0.0964 0.599498,0.0964 z m 0,-3.77362 q 0.256928,0 0.471035,-0.0749 0.219459,-0.0803 0.374686,-0.21411 0.155228,-0.13917 0.24087,-0.32116 0.08564,-0.18199 0.08564,-0.38539 0,-0.22481 -0.08564,-0.40145 -0.08564,-0.18199 -0.24087,-0.3051 -0.155227,-0.12847 -0.374686,-0.19805 -0.214107,-0.0696 -0.471035,-0.0696 -0.256927,0 -0.471034,0.0696 -0.214106,0.0696 -0.369334,0.19805 -0.149874,0.12311 -0.235517,0.3051 -0.08564,0.17664 -0.08564,0.40145 0,0.2034 0.08564,0.38539 0.08564,0.18199 0.235517,0.32116 0.155228,0.13382 0.369334,0.21411 0.214107,0.0749 0.471034,0.0749 z"
         style="font-style:normal;font-variant:normal;font-weight:normal;font-stretch:normal;font-size:10.96225452px;font-family:Overpass;-inkscape-font-specification:Overpass;stroke-width:0.26458332"
         id="path116" />
    </g>
  </g>
</svg>
