<?xml version="1.0" encoding="UTF-8" standalone="no"?>
<!-- Created with Inkscape (http://www.inkscape.org/) -->

<svg
   xmlns:dc="http://purl.org/dc/elements/1.1/"
   xmlns:cc="http://creativecommons.org/ns#"
   xmlns:rdf="http://www.w3.org/1999/02/22-rdf-syntax-ns#"
   xmlns:svg="http://www.w3.org/2000/svg"
   xmlns="http://www.w3.org/2000/svg"
   version="1.0"
   width="751"
   height="601"
   viewBox="0 0 750 599.999"
   id="Layer_1"
   xml:space="preserve"><metadata
     id="metadata3131"><rdf:RDF><cc:Work
         rdf:about=""><dc:format>image/svg+xml</dc:format><dc:type
           rdf:resource="http://purl.org/dc/dcmitype/StillImage" /><dc:title></dc:title></cc:Work></rdf:RDF></metadata><defs
     id="defs62" /><g
     transform="matrix(0.998668,0,0,0.99867,0.499334,0.398971)"
     id="g5"
     style="fill:#ffffff;fill-opacity:1;stroke:#000000;stroke-width:0.99999899;stroke-miterlimit:4;stroke-opacity:1;stroke-dasharray:none"><path
       d="M 38.915039,0 C 92.236328,15.525391 148.625,23.849609 206.95801,23.849609 265.29053,23.849609 321.6792,15.525391 375,4.883e-4 428.32031,15.525391 484.70898,23.849609 543.04199,23.849609 601.375,23.849609 657.76367,15.525391 711.08398,0 736.06445,54.121094 750,114.3877 750,177.90918 750,395.71777 586.16016,575.25391 375,599.99902 163.83887,575.25391 0,395.71777 0,177.90918 0,114.3877 13.935059,54.121094 38.915039,0 z"
       id="path7"
       style="fill:#ffffff;fill-opacity:1;stroke:#000000;stroke-width:0.99999899;stroke-miterlimit:4;stroke-opacity:1;stroke-dasharray:none" /><path
       d="M 38.915039,0 C 92.236328,15.525391 148.625,23.849609 206.95801,23.849609 265.29053,23.849609 321.6792,15.525391 375,4.883e-4 428.32031,15.525391 484.70898,23.849609 543.04199,23.849609 601.375,23.849609 657.76367,15.525391 711.08398,0 736.06445,54.121094 750,114.3877 750,177.90918 750,395.71777 586.16016,575.25391 375,599.99902 163.83887,575.25391 0,395.71777 0,177.90918 0,114.3877 13.935059,54.121094 38.915039,0 z"
       id="path9"
       style="fill:#ffffff;fill-opacity:1;stroke:#000000;stroke-width:0.99999899;stroke-linecap:round;stroke-linejoin:round;stroke-miterlimit:4;stroke-opacity:1;stroke-dasharray:none" /></g><g
     transform="matrix(1.0056,0,0,1.01014,-2.10137,-3.70189)"
     id="g11"
     style="fill:#003f87;fill-opacity:1"><path
       d="m 15,177.90918 c 0,-12.78174 0.584961,-25.42676 1.729004,-37.91016 l 716.541506,0 C 734.41504,152.48242 735,165.12744 735,177.90918 735,387.42285 577.85547,560.22852 375,584.89062 172.14453,560.22852 15,387.42285 15,177.90918 z"
       id="path13"
       style="fill:#003f87;fill-opacity:1" /></g><g
     transform="matrix(1.00604,0,0,1.02708,-2.2645,-3.1523)"
     id="g15"
     style="fill:#af1e2d;fill-opacity:1"><path
       d="m 47.37793,17.942871 c 50.892089,13.635254 104.38769,20.90625 159.58203,20.90625 58.26074,0 114.6294,-8.101074 168.04004,-23.237793 53.41113,15.136719 109.7793,23.237793 168.04004,23.237793 55.19434,0 108.69043,-7.270508 159.58105,-20.90625 14.26172,33.624512 24.16407,69.546387 28.9961,107.056149 l -713.235354,0 C 23.214844,87.489258 33.116211,51.567383 47.37793,17.942871 z"
       id="path17"
       style="fill:#af1e2d;fill-opacity:1" /></g><path
     d="m 183.53777,112.74918 0,-62.416304 8.7562,0 0,62.416304 -8.7562,0 z m 50.78875,0 -19.28351,-41.827881 0,41.827881 -8.94383,0 0,-62.416304 8.94383,0 17.13996,37.449781 0,-37.449781 8.94383,0 0,62.416304 -6.80028,0 z m 35.90893,-54.123507 0,54.123507 -9.0348,0 0,-54.123507 -11.36599,0 0,-8.292797 31.76678,0 0,8.292797 -11.36599,0 z m 19.92317,54.123507 0,-62.416304 29.34463,0 0,8.759034 -20.40081,0 0,15.741247 12.94951,0 0,8.571404 -12.94951,0 0,20.588419 22.82296,0 0,8.7562 -31.76678,0 z m 68.01687,0 -8.2928,-29.344619 -8.56857,0 0,29.344619 -8.94382,0 0,-62.416304 18.6325,0 c 2.42214,6.2e-5 4.64245,0.403756 6.66095,1.211083 2.01845,0.80745 3.75737,1.925664 5.21677,3.354646 1.45932,1.429097 2.57706,3.183651 3.35322,5.263665 0.77607,2.08012 1.16413,4.362509 1.16417,6.847172 -4e-5,3.726162 -0.74535,6.893646 -2.23595,9.50246 -1.49067,2.608886 -3.72663,4.47147 -6.70786,5.587759 l 8.94381,30.649519 -9.22242,0 z m 0.46624,-45.739738 c -3e-5,-2.42212 -0.74536,-4.347248 -2.23597,-5.775391 -1.49066,-1.42804 -3.44706,-2.142087 -5.8692,-2.142141 l -9.22244,0 0,15.741247 9.22244,0 c 2.60788,3.8e-5 4.61071,-0.667573 6.0085,-2.002836 1.39774,-1.335183 2.09664,-3.275474 2.09667,-5.820879 l 0,0 z m 50.98207,28.690746 c -4e-5,2.547271 -0.45017,4.923002 -1.35038,7.127202 -0.9003,2.20422 -2.14218,4.11372 -3.72565,5.72848 -1.58354,1.61479 -3.41581,2.90358 -5.49679,3.86637 -2.08104,0.96281 -4.33263,1.44421 -6.75477,1.44421 -2.73302,0 -5.18598,-0.52784 -7.3589,-1.58351 -2.17295,-1.05567 -4.00474,-2.48376 -5.49537,-4.28427 -1.49064,-1.80052 -2.63965,-3.88106 -3.44704,-6.24163 -0.80739,-2.360569 -1.21108,-4.813533 -1.21108,-7.358908 l 8.7562,0 c -1e-5,1.303969 0.17056,2.592284 0.51172,3.864948 0.34114,1.272694 0.86897,2.42171 1.58351,3.44705 0.7145,1.02535 1.61524,1.84837 2.70219,2.46906 1.08692,0.62071 2.4065,0.93107 3.95877,0.93106 1.18074,1e-5 2.31458,-0.24827 3.40155,-0.74485 1.08691,-0.49654 2.01844,-1.17979 2.79459,-2.04973 0.77609,-0.86993 1.39679,-1.87917 1.86211,-3.027717 0.46526,-1.148525 0.6979,-2.344446 0.69793,-3.587765 -3e-5,-1.800497 -0.37244,-3.399164 -1.11726,-4.796005 -0.74488,-1.396798 -2.04883,-2.809728 -3.91186,-4.238794 -0.31084,-0.310799 -0.43499,-0.481849 -0.37241,-0.513147 0.0625,-0.03124 -0.1237,-0.201821 -0.55864,-0.511725 -0.43499,-0.309852 -1.35135,-0.915393 -2.7491,-1.816626 -1.39779,-0.901175 -3.68019,-2.437772 -6.84717,-4.609794 -2.54538,-1.739832 -4.45487,-3.774413 -5.72849,-6.103749 -1.27364,-2.329257 -1.91045,-4.890726 -1.91044,-7.684412 -10e-6,-2.23638 0.40368,-4.332557 1.21108,-6.288538 0.80738,-1.955873 1.94076,-3.679155 3.40014,-5.16985 1.45935,-1.490577 3.15183,-2.655224 5.07744,-3.493947 1.92559,-0.838599 4.00566,-1.25793 6.24022,-1.257994 2.2364,6.4e-5 4.30178,0.403759 6.19614,1.211085 1.8943,0.807451 3.53988,1.925665 4.93673,3.354645 1.39679,1.429099 2.51453,3.137218 3.35323,5.124363 0.83862,1.987252 1.28922,4.160663 1.3518,6.520236 l -8.57141,0 c -0.12322,-2.173836 -0.86806,-3.912753 -2.23453,-5.216757 -1.36651,-1.303899 -3.04384,-1.955875 -5.03196,-1.955929 -2.04883,5.4e-5 -3.78727,0.683302 -5.21535,2.049745 -1.4281,1.366548 -2.14215,3.074193 -2.14213,5.122941 -2e-5,1.55228 0.40367,2.856231 1.21109,3.911858 0.80736,1.055713 2.3596,2.235523 4.6567,3.539435 6.02506,3.477874 10.41926,7.01778 13.18261,10.619726 2.76329,3.602005 4.14494,7.669746 4.14498,12.203233 l 0,0 z m 26.00133,-37.074515 0,54.123507 -9.03479,0 0,-54.123507 -11.36599,0 0,-8.292797 31.76678,0 0,8.292797 -11.366,0 z m 46.00697,54.123507 -4.37809,-17.048992 -13.41574,0 -4.09663,17.048992 -9.03766,0 15.55646,-62.416304 8.75904,0 15.55645,62.416304 -8.94383,0 z m -11.17836,-43.783809 -4.37809,17.978625 8.94383,0 -4.56574,-17.978625 z m 44.31827,-10.339698 0,54.123507 -9.03479,0 0,-54.123507 -11.36599,0 0,-8.292797 31.76678,0 0,8.292797 -11.366,0 z m 19.92319,54.123507 0,-62.416304 29.34462,0 0,8.759034 -20.40079,0 0,15.741247 12.94949,0 0,8.571404 -12.94949,0 0,20.588419 22.82296,0 0,8.7562 -31.76679,0 z"
     id="text7023"
     style="font-size:93.28099823px;font-style:normal;font-variant:normal;font-weight:normal;font-stretch:normal;text-align:center;line-height:125%;text-anchor:middle;fill:#ffffff;fill-opacity:1" /><g
     id="text2637"
     style="font-size:54.92679977px;font-style:normal;font-variant:normal;font-weight:normal;font-stretch:normal;text-align:center;line-height:100%;text-anchor:middle;fill:#ffffff;fill-opacity:1;stroke:none"><path
       d="m 318.01988,155.36216 0,31.63784 -5.82224,0 0,-31.63784 -8.4038,0 0,-5.16312 22.7397,0 0,5.16312 -8.51366,0"
       id="path3214"
       style="font-family:Roadgeek 2005 Series D;-inkscape-font-specification:Roadgeek 2005 Series D" /><path
       d="m 331.92323,187 0,-36.80096 21.69608,0 0,5.82224 -15.87384,0 0,9.008 10.71072,0 0,5.93209 -10.71072,0 0,10.10654 17.02731,0 0,5.93209 -22.84955,0"
       id="path3216"
       style="font-family:Roadgeek 2005 Series D;-inkscape-font-specification:Roadgeek 2005 Series D" /><path
       d="m 376.86966,187 -5.9321,-12.24868 -5.93209,12.24868 -6.59122,0 9.17278,-19.00467 -8.51366,-17.79629 6.59122,0 5.27297,10.98536 5.27297,-10.98536 6.59122,0 -8.62351,17.79629 9.28263,19.00467 -6.59121,0"
       id="path3218"
       style="font-family:Roadgeek 2005 Series D;-inkscape-font-specification:Roadgeek 2005 Series D" /><path
       d="m 411.33537,187 -3.62517,-10.32624 -11.4797,0 -3.62517,10.32624 -6.20673,0 12.68809,-36.80096 5.76731,0 12.6881,36.80096 -6.20673,0 m -9.28263,-26.58457 -3.78995,10.32624 7.36019,0 -3.57024,-10.32624"
       id="path3220"
       style="font-family:Roadgeek 2005 Series D;-inkscape-font-specification:Roadgeek 2005 Series D" /><path
       d="m 445.57536,176.39913 c -3e-5,1.68443 -0.31128,3.24069 -0.93376,4.66878 -0.62253,1.4281 -1.51966,2.6731 -2.69141,3.73502 -1.02532,0.91545 -2.23371,1.62949 -3.62517,2.14214 -1.35488,0.47604 -2.81959,0.71405 -4.39414,0.71405 -3.18577,0 -5.9138,-0.84221 -8.1841,-2.52663 -2.23369,-1.72104 -3.97304,-3.99134 -5.21804,-6.81092 l 5.5476,-2.0323 c 0.76897,1.75767 1.83089,3.11253 3.18576,4.06459 1.35485,0.91545 2.91111,1.37317 4.66878,1.37317 1.72102,0 3.09419,-0.51265 4.11951,-1.53795 1.06189,-1.06191 1.59285,-2.36185 1.59287,-3.89981 -2e-5,-1.20837 -0.32958,-2.19706 -0.98868,-2.96604 -0.62252,-0.76896 -1.44642,-1.40978 -2.4717,-1.92244 -1.02532,-0.54925 -2.16047,-1.02528 -3.40547,-1.4281 -1.2084,-0.40278 -2.41679,-0.84219 -3.62516,-1.31824 -0.54928,-0.21969 -1.22671,-0.53094 -2.0323,-0.93376 -0.8056,-0.40277 -1.59288,-0.95204 -2.36185,-1.6478 -0.73236,-0.73234 -1.37317,-1.62947 -1.92244,-2.69141 -0.51265,-1.0619 -0.76898,-2.36183 -0.76897,-3.89981 -10e-6,-1.79424 0.29294,-3.31388 0.87883,-4.55892 0.58588,-1.28159 1.37316,-2.30689 2.36185,-3.0759 1.02529,-0.80556 2.23368,-1.39144 3.62517,-1.75766 1.42808,-0.36614 2.96603,-0.54923 4.61385,-0.54927 2.59985,4e-5 4.7603,0.67747 6.48136,2.03229 1.75764,1.3549 3.09419,3.18579 4.00966,5.49268 l -5.16312,1.53795 c -0.29296,-0.58585 -0.67745,-1.11681 -1.15346,-1.59287 -0.40282,-0.40277 -0.9704,-0.76895 -1.70273,-1.09854 -0.69576,-0.32953 -1.55628,-0.51262 -2.58156,-0.54927 -0.65914,-0.0366 -1.35488,0.0183 -2.08722,0.16478 -0.69575,0.10989 -1.31826,0.3296 -1.86751,0.65913 -0.54928,0.32959 -0.9887,0.78731 -1.31825,1.37317 -0.32957,0.54929 -0.45773,1.24503 -0.38448,2.08721 0.0732,1.13518 0.56756,2.01401 1.48302,2.63649 0.91543,0.58591 2.03228,1.09856 3.35053,1.53795 1.31823,0.43944 2.72802,0.89716 4.22937,1.37317 1.53793,0.43944 2.94771,1.09856 4.22936,1.97737 1.2816,0.84223 2.34352,1.99569 3.18576,3.46038 0.8788,1.42812 1.31821,3.35055 1.31824,5.76732"
       id="path3222"
       style="font-family:Roadgeek 2005 Series D;-inkscape-font-specification:Roadgeek 2005 Series D" /></g><g
     id="text2645"
     style="font-size:374.50100708px;font-style:normal;font-variant:normal;font-weight:normal;font-stretch:normal;text-align:center;line-height:100%;text-anchor:middle;fill:#ffffff;fill-opacity:1;stroke:none"><path
       d="m 257.57931,382.21532 c -1.6e-4,10.23642 -1.74783,19.8486 -5.24302,28.83658 -3.49549,8.73838 -8.364,16.35323 -14.60554,22.84456 -5.99214,6.49136 -13.35732,11.60953 -22.09556,15.35454 -8.48879,3.49534 -17.72647,5.24301 -27.71307,5.24301 -10.23644,0 -19.59895,-1.74767 -28.08758,-5.24301 -8.23907,-3.49534 -15.47941,-8.36385 -21.72106,-14.60554 -5.99204,-6.24166 -10.86055,-13.60684 -14.60554,-22.09556 -3.49536,-8.73831 -5.49269,-18.22566 -5.99201,-28.46208 l 35.20309,0 c 0.99862,10.23642 4.61879,18.7251 10.86053,25.46607 6.49129,6.49139 14.60547,9.73706 24.34257,9.73703 10.23626,3e-5 18.60011,-3.49531 25.09157,-10.48603 6.7409,-7.24031 10.1114,-16.10349 10.11152,-26.58957 -1.2e-4,-6.74095 -0.87395,-12.98262 -2.6215,-18.72505 -1.74779,-5.99193 -4.11963,-11.1101 -7.11552,-15.35454 -2.99612,-4.49391 -6.49146,-7.98925 -10.48603,-10.48603 -3.74511,-2.49656 -7.86462,-3.7449 -12.35853,-3.74501 l -17.60155,0 0,-34.45409 14.98004,0 c 4.49392,1.5e-4 7.86443,-0.74886 10.11153,-2.24701 2.49657,-1.49785 5.24291,-3.99452 8.23902,-7.49002 7.24024,-7.98919 10.86041,-17.3517 10.86053,-28.08758 -1.2e-4,-9.73682 -2.74646,-17.4765 -8.23903,-23.21906 -5.24311,-5.74213 -12.23379,-8.6133 -20.97205,-8.61352 -7.98943,2.2e-4 -14.35594,2.37206 -19.09955,7.11552 -4.49408,4.49422 -7.24042,10.98556 -8.23903,19.47405 l -35.20309,-4.49401 c 0.99865,-8.23882 3.24565,-15.85366 6.74102,-22.84456 3.49531,-7.24013 7.98932,-13.35697 13.48203,-18.35055 5.49264,-4.99311 11.85915,-8.86295 19.09956,-11.60953 7.24028,-2.99576 14.97996,-4.49376 23.21906,-4.49402 8.98793,2.6e-4 17.35178,1.62309 25.09157,4.86852 7.73956,3.24592 14.35574,7.86476 19.84855,13.85653 5.74221,5.74258 10.23622,12.60843 13.48204,20.59756 3.24552,7.73989 4.86836,16.10374 4.86851,25.09157 -1.5e-4,10.48621 -1.74782,20.22322 -5.24302,29.21107 -3.24581,8.98818 -9.11299,18.3507 -17.60154,28.08758 9.73689,8.73848 16.97723,18.72517 21.72106,29.96008 4.99319,11.23512 7.48986,23.21914 7.49002,35.9521"
       id="path4232"
       style="font-family:Roadgeek 2005 Series C;-inkscape-font-specification:Roadgeek 2005 Series C" /><path
       d="m 427.27508,361.99226 c -1.6e-4,13.23245 -1.9975,25.46613 -5.99202,36.7011 -3.99482,11.23507 -9.4875,20.97209 -16.47804,29.21108 -6.99082,8.23904 -15.22983,14.73038 -24.71707,19.47405 -9.48746,4.74368 -19.84864,7.11552 -31.08358,7.11552 -11.2351,0 -22.09562,-1.87251 -32.58159,-5.61751 -10.2364,-3.74501 -19.97341,-9.23768 -29.21108,-16.47805 l 23.59356,-25.46607 c 6.24164,4.24439 11.98398,7.36523 17.22705,9.36253 5.24295,1.99737 10.98529,2.99604 17.22705,2.99601 6.74093,3e-5 12.98261,-1.37314 18.72505,-4.11951 5.74225,-2.99597 10.61075,-7.11548 14.60553,-12.35854 4.24424,-5.24296 7.48991,-11.48464 9.73703,-18.72505 2.49656,-7.24028 3.74489,-15.22962 3.74501,-23.96806 -1.2e-4,-13.7316 -3.12096,-24.46729 -9.36252,-32.20709 -6.24179,-7.73956 -14.60564,-11.6094 -25.09157,-11.60953 -10.98544,1.3e-4 -20.97212,4.11964 -29.96008,12.35853 l -34.45409,-4.49401 6.36651,-125.08333 117.96782,0 0,35.20309 -84.63723,0 -2.62151,52.80464 c 6.24162,-2.24684 11.23497,-3.62001 14.98005,-4.11951 3.9946,-0.74883 8.36377,-1.12333 13.10753,-1.1235 10.23626,1.7e-4 19.59878,1.9975 28.08758,5.99201 8.48856,3.74517 15.72891,9.23785 21.72105,16.47805 5.99188,6.99082 10.61072,15.35467 13.85654,25.09157 3.49519,9.73713 5.24286,20.59765 5.24302,32.58158"
       id="path4234"
       style="font-family:Roadgeek 2005 Series C;-inkscape-font-specification:Roadgeek 2005 Series C" /><path
       d="M 599.59235,450 568.88327,450 544.91521,318.92465 521.32164,450 l -31.83258,0 -39.69711,-250.91567 35.20309,0 21.34656,133.69685 24.34257,-133.69685 28.46207,0 23.59357,133.69685 22.09556,-133.69685 35.20309,0 L 599.59235,450"
       id="path4236"
       style="font-family:Roadgeek 2005 Series C;-inkscape-font-specification:Roadgeek 2005 Series C" /></g></svg>