<?xml version="1.0" encoding="UTF-8" standalone="no"?>
<!-- Created with Inkscape (http://www.inkscape.org/) -->

<svg
   xmlns:dc="http://purl.org/dc/elements/1.1/"
   xmlns:cc="http://creativecommons.org/ns#"
   xmlns:rdf="http://www.w3.org/1999/02/22-rdf-syntax-ns#"
   xmlns:svg="http://www.w3.org/2000/svg"
   xmlns="http://www.w3.org/2000/svg"
   xmlns:sodipodi="http://sodipodi.sourceforge.net/DTD/sodipodi-0.dtd"
   xmlns:inkscape="http://www.inkscape.org/namespaces/inkscape"
   width="200"
   height="200"
   viewBox="0 0 52.916665 52.916668"
   version="1.1"
   id="svg8"
   inkscape:version="0.92.3 (3ce5693, 2018-03-11)"
   sodipodi:docname="loop12.svg">
  <defs
     id="defs2" />
  <sodipodi:namedview
     id="base"
     pagecolor="#ffffff"
     bordercolor="#666666"
     borderopacity="1.0"
     inkscape:pageopacity="0.0"
     inkscape:pageshadow="2"
     inkscape:zoom="1"
     inkscape:cx="94.450657"
     inkscape:cy="135.94925"
     inkscape:document-units="mm"
     inkscape:current-layer="layer1"
     showgrid="false"
     units="px"
     inkscape:pagecheckerboard="true"
     inkscape:window-width="1280"
     inkscape:window-height="927"
     inkscape:window-x="0"
     inkscape:window-y="27"
     inkscape:window-maximized="1"
     inkscape:snap-text-baseline="true">
    <inkscape:grid
       type="xygrid"
       id="grid10" />
  </sodipodi:namedview>
  <metadata
     id="metadata5">
    <rdf:RDF>
      <cc:Work
         rdf:about="">
        <dc:format>image/svg+xml</dc:format>
        <dc:type
           rdf:resource="http://purl.org/dc/dcmitype/StillImage" />
        <dc:title></dc:title>
      </cc:Work>
    </rdf:RDF>
  </metadata>
  <g
     inkscape:label="Layer 1"
     inkscape:groupmode="layer"
     id="layer1"
     transform="translate(0,-244.08332)">
    <rect
       style="opacity:1;vector-effect:none;fill:#000000;fill-opacity:1;stroke:none;stroke-width:0.20631;stroke-linecap:square;stroke-linejoin:miter;stroke-miterlimit:4;stroke-dasharray:none;stroke-dashoffset:0;stroke-opacity:1;marker:none"
       id="rect53"
       width="47.625"
       height="47.625"
       x="2.6458333"
       y="246.72916"
       rx="2.6458333"
       ry="2.6458333" />
    <rect
       style="opacity:1;vector-effect:none;fill:#ffffff;fill-opacity:1;stroke:none;stroke-width:0.20631;stroke-linecap:square;stroke-linejoin:miter;stroke-miterlimit:4;stroke-dasharray:none;stroke-dashoffset:0;stroke-opacity:1;marker:none"
       id="rect55"
       width="42.333332"
       height="42.333332"
       x="5.2916665"
       y="249.37498" />
    <g
       aria-label="LOOP"
       style="font-style:normal;font-weight:normal;font-size:10.58333302px;line-height:1.25;font-family:sans-serif;letter-spacing:0px;word-spacing:0px;fill:#000000;fill-opacity:1;stroke:none;stroke-width:0.26458332"
       id="text35">
      <path
         d="m 12.833842,262.3396 v -7.4104 h 1.100708 v 6.35103 h 3.622517 v 1.05937 z"
         style="font-style:normal;font-variant:normal;font-weight:normal;font-stretch:normal;font-family:Overpass;-inkscape-font-specification:Overpass;text-align:center;text-anchor:middle;stroke-width:0.26458332"
         id="path81" />
      <path
         d="m 21.959899,262.46879 q -0.594279,0 -1.064534,-0.15503 -0.470256,-0.1602 -0.831991,-0.42891 -0.356567,-0.27389 -0.609781,-0.64079 -0.253215,-0.37207 -0.413412,-0.79582 -0.160197,-0.42891 -0.237711,-0.88883 -0.07235,-0.46509 -0.07235,-0.92501 0,-0.45475 0.07235,-0.91467 0.07751,-0.46509 0.237711,-0.88884 0.160197,-0.42891 0.413412,-0.79581 0.253214,-0.37208 0.609781,-0.64079 0.361735,-0.27389 0.831991,-0.42892 0.470255,-0.16019 1.064534,-0.16019 0.594279,0 1.064535,0.16019 0.470255,0.15503 0.826823,0.42892 0.361735,0.26871 0.614949,0.64079 0.253215,0.3669 0.413412,0.79581 0.160197,0.42375 0.232544,0.88884 0.07235,0.45992 0.07235,0.91467 0,0.45992 -0.07235,0.92501 -0.07235,0.45992 -0.232544,0.88883 -0.160197,0.42375 -0.413412,0.79582 -0.253214,0.3669 -0.614949,0.64079 -0.356568,0.26871 -0.826823,0.42891 -0.470256,0.15503 -1.064535,0.15503 z m 0,-1.05937 q 0.387574,0 0.692465,-0.11885 0.304891,-0.12403 0.532267,-0.33073 0.232544,-0.20671 0.392741,-0.48059 0.165364,-0.27905 0.268717,-0.58395 0.103353,-0.31005 0.149862,-0.63045 0.04651,-0.32556 0.04651,-0.63045 0,-0.32039 -0.04651,-0.65112 -0.04651,-0.3359 -0.149862,-0.64079 -0.103353,-0.31006 -0.268717,-0.57878 -0.160197,-0.26871 -0.392741,-0.46509 -0.227376,-0.20153 -0.532267,-0.31522 -0.304891,-0.11886 -0.692465,-0.11886 -0.387573,0 -0.692464,0.12403 -0.304891,0.11885 -0.537435,0.32556 -0.232544,0.2067 -0.397908,0.48576 -0.160197,0.27388 -0.26355,0.58394 -0.103353,0.30489 -0.149862,0.63045 -0.04651,0.3204 -0.04651,0.62012 0,0.48576 0.10852,0.98185 0.108521,0.49093 0.356567,0.894 0.248047,0.39791 0.645956,0.65113 0.397908,0.24804 0.976684,0.24804 z"
         style="font-style:normal;font-variant:normal;font-weight:normal;font-stretch:normal;font-family:Overpass;-inkscape-font-specification:Overpass;text-align:center;text-anchor:middle;stroke-width:0.26458332"
         id="path83" />
      <path
         d="m 29.794046,262.46879 q -0.594279,0 -1.064534,-0.15503 -0.470256,-0.1602 -0.831991,-0.42891 -0.356567,-0.27389 -0.609781,-0.64079 -0.253215,-0.37207 -0.413412,-0.79582 -0.160197,-0.42891 -0.237712,-0.88883 -0.07235,-0.46509 -0.07235,-0.92501 0,-0.45475 0.07235,-0.91467 0.07751,-0.46509 0.237712,-0.88884 0.160197,-0.42891 0.413412,-0.79581 0.253214,-0.37208 0.609781,-0.64079 0.361735,-0.27389 0.831991,-0.42892 0.470255,-0.16019 1.064534,-0.16019 0.594279,0 1.064535,0.16019 0.470255,0.15503 0.826823,0.42892 0.361735,0.26871 0.614949,0.64079 0.253215,0.3669 0.413412,0.79581 0.160197,0.42375 0.232544,0.88884 0.07235,0.45992 0.07235,0.91467 0,0.45992 -0.07235,0.92501 -0.07235,0.45992 -0.232544,0.88883 -0.160197,0.42375 -0.413412,0.79582 -0.253214,0.3669 -0.614949,0.64079 -0.356568,0.26871 -0.826823,0.42891 -0.470256,0.15503 -1.064535,0.15503 z m 0,-1.05937 q 0.387574,0 0.692465,-0.11885 0.304891,-0.12403 0.532267,-0.33073 0.232544,-0.20671 0.392741,-0.48059 0.165364,-0.27905 0.268717,-0.58395 0.103353,-0.31005 0.149862,-0.63045 0.04651,-0.32556 0.04651,-0.63045 0,-0.32039 -0.04651,-0.65112 -0.04651,-0.3359 -0.149862,-0.64079 -0.103353,-0.31006 -0.268717,-0.57878 -0.160197,-0.26871 -0.392741,-0.46509 -0.227376,-0.20153 -0.532267,-0.31522 -0.304891,-0.11886 -0.692465,-0.11886 -0.387573,0 -0.692464,0.12403 -0.304891,0.11885 -0.537435,0.32556 -0.232544,0.2067 -0.397908,0.48576 -0.160197,0.27388 -0.26355,0.58394 -0.103353,0.30489 -0.149862,0.63045 -0.04651,0.3204 -0.04651,0.62012 0,0.48576 0.10852,0.98185 0.108521,0.49093 0.356567,0.894 0.248047,0.39791 0.645956,0.65113 0.397908,0.24804 0.976684,0.24804 z"
         style="font-style:normal;font-variant:normal;font-weight:normal;font-stretch:normal;font-family:Overpass;-inkscape-font-specification:Overpass;text-align:center;text-anchor:middle;stroke-width:0.26458332"
         id="path85" />
      <path
         d="m 34.661967,262.3396 v -7.4104 h 2.976562 q 0.682129,0 1.147217,0.20154 0.470255,0.19637 0.754476,0.51676 0.289388,0.3204 0.413411,0.72864 0.129191,0.40308 0.129191,0.82165 0,0.25839 -0.06201,0.5271 -0.05684,0.26872 -0.180868,0.52194 -0.124023,0.24804 -0.320394,0.47025 -0.19637,0.22221 -0.470255,0.38758 -0.268718,0.16536 -0.620117,0.26354 -0.3514,0.093 -0.79065,0.093 h -1.875854 v 2.87838 z m 3.038574,-3.93774 q 0.346232,0 0.578776,-0.10852 0.237711,-0.10853 0.382405,-0.27906 0.149862,-0.1757 0.211874,-0.38757 0.06718,-0.21704 0.06718,-0.42892 0,-0.19637 -0.05684,-0.40824 -0.05684,-0.21187 -0.19637,-0.38757 -0.139527,-0.18087 -0.382406,-0.29456 -0.237711,-0.11885 -0.604614,-0.11885 h -1.937866 v 2.41329 z"
         style="font-style:normal;font-variant:normal;font-weight:normal;font-stretch:normal;font-family:Overpass;-inkscape-font-specification:Overpass;text-align:center;text-anchor:middle;stroke-width:0.26458332"
         id="path87" />
    </g>
    <g
       aria-label="12"
       style="font-style:normal;font-weight:normal;font-size:10.58333302px;line-height:1.25;font-family:sans-serif;letter-spacing:0px;word-spacing:0px;fill:#000000;fill-opacity:1;stroke:none;stroke-width:0.26458332"
       id="text35-4">
      <path
         d="m 17.727082,286.41666 v -13.79141 h -2.914551 v -1.95957 q 0.644922,0 1.203028,-0.0992 0.558105,-0.0992 1.00459,-0.33486 0.458886,-0.23565 0.79375,-0.62012 0.334863,-0.39687 0.520898,-0.97978 h 2.033984 v 17.78496 z"
         style="font-style:normal;font-variant:normal;font-weight:normal;font-stretch:normal;font-size:25.39999962px;font-family:Overpass;-inkscape-font-specification:Overpass;text-align:center;text-anchor:middle;stroke-width:0.26458332"
         id="path76" />
      <path
         d="m 26.123469,272.14156 q 0.32246,-0.84336 0.892968,-1.53789 0.570508,-0.70694 1.351856,-1.20303 0.781347,-0.50849 1.736328,-0.78135 0.95498,-0.28525 2.033984,-0.28525 1.351856,0 2.43086,0.39687 1.079003,0.38448 1.823144,1.09141 0.756543,0.69453 1.153418,1.66191 0.409277,0.96739 0.409277,2.1084 0,1.12862 -0.347265,1.97198 -0.334864,0.84336 -0.942578,1.51308 -0.607715,0.65733 -1.463477,1.20303 -0.843359,0.5333 -1.847949,1.0542 -1.748731,0.91777 -2.864942,2.00918 -1.103808,1.079 -1.426269,2.48047 h 9.041308 v 2.59209 H 25.838215 q 0,-1.82315 0.5333,-3.28662 0.533301,-1.46348 1.42627,-2.6169 0.892969,-1.15342 2.046387,-2.02158 1.153418,-0.86817 2.393652,-1.50068 0.570508,-0.29766 1.103809,-0.63252 0.545703,-0.33487 0.95498,-0.74414 0.42168,-0.42168 0.669727,-0.93018 0.248046,-0.5209 0.248046,-1.16582 0,-0.55811 -0.235644,-1.0294 -0.223242,-0.48369 -0.63252,-0.84335 -0.409277,-0.35967 -0.979785,-0.55811 -0.570508,-0.21084 -1.252636,-0.21084 -1.451075,0 -2.306836,0.63252 -0.855762,0.63252 -1.277442,1.72393 z"
         style="font-style:normal;font-variant:normal;font-weight:normal;font-stretch:normal;font-size:25.39999962px;font-family:Overpass;-inkscape-font-specification:Overpass;text-align:center;text-anchor:middle;stroke-width:0.26458332"
         id="path78" />
    </g>
  </g>
</svg>
