<?xml version="1.0" encoding="UTF-8" standalone="no"?>
<svg
   xmlns:dc="http://purl.org/dc/elements/1.1/"
   xmlns:cc="http://creativecommons.org/ns#"
   xmlns:rdf="http://www.w3.org/1999/02/22-rdf-syntax-ns#"
   xmlns:svg="http://www.w3.org/2000/svg"
   xmlns="http://www.w3.org/2000/svg"
   version="1.1"
   width="600"
   height="600"
   id="svg2988">
  <defs
     id="defs13" />
  <metadata
     id="metadata2993">
    <rdf:RDF>
      <cc:Work
         rdf:about="">
        <dc:format>image/svg+xml</dc:format>
        <dc:type
           rdf:resource="http://purl.org/dc/dcmitype/StillImage" />
        <dc:title />
      </cc:Work>
    </rdf:RDF>
  </metadata>
  <g
     transform="translate(-79.257 -246.21)"
     id="layer1">
    <rect
       x="79.257"
       y="246.21"
       width="600"
       height="600"
       ry="37.5"
       rx="37.5"
       id="rect2996" />
    <rect
       fill="#fff"
       x="-318.03"
       y="454.42"
       width="399.96"
       height="399.96"
       transform="rotate(-45)"
       id="rect3766" />
    <g
       aria-label="37"
       id="routenum">
      <path
         d="m363.34 614.61q0 15.224-5.0746 28.06t-14.328 22.09q-8.9552 8.9552-21.791 14.328-12.537 5.0746-27.761 5.0746-12.239 0-22.985-3.8806-10.448-3.8806-19.403-10.746-8.6567-6.8657-14.925-16.716-6.2687-9.8507-9.2537-22.09l31.045-8.9552q3.5821 14.627 13.134 22.388 9.5522 7.7612 23.881 7.7612 8.0597 0 14.627-2.6866 6.5672-2.6866 11.045-7.1642 4.7761-4.7761 7.4627-11.045 2.6866-6.5672 2.6866-14.328 0-7.7612-2.9851-14.627-2.9851-6.8657-8.3582-10.746-1.791-1.194-3.2836-1.791-1.194-0.89553-3.2836-1.194-1.791-0.29851-5.0746-0.59702-2.9851-0.29851-8.6567-0.59701h-3.5821v-32.239 0.89552h7.7611q9.5522 0 14.627-5.0746 5.0746-5.0746 5.0746-14.627 0-11.642-8.3582-19.104-8.0597-7.7612-20.299-7.7612-20 0-30.149 19.701l-29.552-11.045q7.7612-19.104 23.284-29.851 15.821-11.045 35.522-11.045 12.537 0 23.582 4.7761 11.343 4.7761 19.701 13.134 8.3582 8.3582 13.134 19.701 4.7761 11.045 4.7761 23.582 0 8.9552-2.3881 16.119-2.3881 7.1642-8.9552 16.716 5.6716 5.0746 9.2537 9.8508 3.5821 4.4776 5.6716 9.5522 2.3881 5.0746 3.2836 11.045 0.89552 5.6716 0.89552 13.134z"
         style=""
         id="path12" />
      <path
         d="m533.24 512.22q-2.6866 3.2836-5.0746 5.9702-2.0896 2.6866-4.1791 5.3731-1.791 2.6866-3.8806 5.6716-2.0896 2.9851-4.4776 6.8657-13.433 22.09-22.985 46.567-9.2537 24.478-14.328 48.657-0.89552 6.2687-1.791 12.239-0.89552 5.6716-1.4925 11.642-0.29851 5.6716-0.59701 11.94-0.29851 5.9702-0.29851 13.433h-32.239q0.29851-17.313 2.0896-33.433 1.791-16.119 5.0746-31.642 3.5821-15.522 8.9552-30.746 5.3731-15.522 12.836-31.343 5.0746-11.343 11.045-22.09 5.9702-10.746 11.343-19.104h-95.522v-31.642h135.52v31.642z"
         style=""
         id="path14" />
    </g>
    <path
       d="m319.88 361.83v21.875h7.8212v43.75h-7.8212v21.875h37.5v-21.875h-7.8038c-0.002-11.611-0.001-23.218 0-34.826l29.679 31.25 29.679-31.25c0.00083 11.608 0 23.215 0 34.826h-7.8038v21.875h37.5v-21.875h-7.8212v-43.75h7.8212v-21.875h-29.696l-29.679 31.25-29.679-31.25h-29.696z"
       id="rect3820" />
  </g>
</svg>
