<?xml version="1.0" encoding="UTF-8" standalone="no"?>
<!-- Created with Inkscape (http://www.inkscape.org/) -->

<svg
   xmlns:dc="http://purl.org/dc/elements/1.1/"
   xmlns:cc="http://creativecommons.org/ns#"
   xmlns:rdf="http://www.w3.org/1999/02/22-rdf-syntax-ns#"
   xmlns:svg="http://www.w3.org/2000/svg"
   xmlns="http://www.w3.org/2000/svg"
   xmlns:sodipodi="http://sodipodi.sourceforge.net/DTD/sodipodi-0.dtd"
   xmlns:inkscape="http://www.inkscape.org/namespaces/inkscape"
   width="200"
   height="200"
   viewBox="0 0 52.916665 52.916668"
   version="1.1"
   id="svg8"
   inkscape:version="0.92.3 (3ce5693, 2018-03-11)"
   sodipodi:docname="m37.svg">
  <defs
     id="defs2" />
  <sodipodi:namedview
     id="base"
     pagecolor="#ffffff"
     bordercolor="#666666"
     borderopacity="1.0"
     inkscape:pageopacity="0.0"
     inkscape:pageshadow="2"
     inkscape:zoom="1"
     inkscape:cx="92.322602"
     inkscape:cy="127.08777"
     inkscape:document-units="mm"
     inkscape:current-layer="layer1"
     showgrid="true"
     units="px"
     inkscape:pagecheckerboard="true"
     inkscape:window-width="1280"
     inkscape:window-height="927"
     inkscape:window-x="0"
     inkscape:window-y="27"
     inkscape:window-maximized="1"
     inkscape:snap-text-baseline="true">
    <inkscape:grid
       type="xygrid"
       id="grid10" />
  </sodipodi:namedview>
  <metadata
     id="metadata5">
    <rdf:RDF>
      <cc:Work
         rdf:about="">
        <dc:format>image/svg+xml</dc:format>
        <dc:type
           rdf:resource="http://purl.org/dc/dcmitype/StillImage" />
        <dc:title />
      </cc:Work>
    </rdf:RDF>
  </metadata>
  <g
     inkscape:label="Layer 1"
     inkscape:groupmode="layer"
     id="layer1"
     transform="translate(0,-244.08332)">
    <rect
       style="opacity:1;vector-effect:none;fill:#000000;fill-opacity:1;stroke:none;stroke-width:0.20631;stroke-linecap:square;stroke-linejoin:miter;stroke-miterlimit:4;stroke-dasharray:none;stroke-dashoffset:0;stroke-opacity:1;marker:none"
       id="rect53"
       width="47.625"
       height="47.625"
       x="2.6458333"
       y="246.72916"
       rx="2.6458333"
       ry="2.6458333" />
    <path
       style="fill:#ffffff;stroke:none;stroke-width:0.26458332px;stroke-linecap:butt;stroke-linejoin:miter;stroke-opacity:1"
       d="m 2.6458333,270.54165 23.8124997,-23.8125 23.8125,23.8125 -23.8125,23.8125 z"
       id="path55"
       inkscape:connector-curvature="0" />
    <g
       aria-label="37"
       style="font-style:normal;font-weight:normal;font-size:10.58333302px;line-height:1.25;font-family:sans-serif;text-align:center;letter-spacing:0px;word-spacing:0px;text-anchor:middle;fill:#000000;fill-opacity:1;stroke:none;stroke-width:0.26458332"
       id="text59">
      <path
         d="m 20.218577,281.92975 q -1.047309,0 -1.929253,-0.26458 -0.870921,-0.25356 -1.565452,-0.72761 -0.694531,-0.48507 -1.212673,-1.14652 -0.518143,-0.67249 -0.848872,-1.49931 l 2.193837,-0.88194 q 0.275607,0.61736 0.63941,1.04731 0.374826,0.42994 0.815798,0.70555 0.440972,0.26458 0.926042,0.38585 0.485069,0.12127 0.981163,0.12127 0.63941,0 1.201649,-0.14332 0.56224,-0.15434 0.981164,-0.46302 0.418923,-0.3197 0.661458,-0.80477 0.253559,-0.48507 0.253559,-1.16858 0,-0.51814 -0.176389,-0.97014 -0.165365,-0.46302 -0.540191,-0.80477 -0.363802,-0.35278 -0.937066,-0.55122 -0.573264,-0.19843 -1.378038,-0.19843 h -1.212674 v -2.25999 h 1.212674 q 0.551215,0 0.992187,-0.15434 0.451997,-0.16536 0.771702,-0.44097 0.319705,-0.28663 0.496093,-0.67248 0.176389,-0.39688 0.176389,-0.87092 0,-1.10243 -0.639409,-1.70877 -0.628386,-0.61736 -1.863108,-0.61736 -0.56224,0 -1.003212,0.15434 -0.440972,0.14332 -0.782726,0.38585 -0.330729,0.24254 -0.584288,0.57326 -0.253559,0.31971 -0.429948,0.66146 l -2.182812,-0.82682 q 0.275608,-0.71658 0.738628,-1.30087 0.474045,-0.59531 1.102431,-1.01423 0.63941,-0.42995 1.444184,-0.66146 0.804774,-0.23151 1.763889,-0.23151 1.069357,0 1.962326,0.35277 0.903993,0.34176 1.554427,0.93707 0.650434,0.59531 1.003212,1.38906 0.363802,0.78273 0.363802,1.6757 0,1.10243 -0.507118,2.00642 -0.496094,0.89297 -1.532378,1.42214 0.595312,0.24253 1.080382,0.59531 0.485069,0.34175 0.826823,0.79375 0.341753,0.452 0.529166,1.01424 0.187413,0.56223 0.187413,1.23472 0,1.19062 -0.418923,2.11666 -0.418924,0.91502 -1.157552,1.54341 -0.738629,0.62838 -1.752865,0.94809 -1.014236,0.3197 -2.204861,0.3197 z"
         style="font-style:normal;font-variant:normal;font-weight:normal;font-stretch:normal;font-size:22.57777786px;font-family:Overpass;-inkscape-font-specification:Overpass;text-align:center;text-anchor:middle;stroke-width:0.26458332"
         id="path156" />
      <path
         d="m 31.320053,281.65414 q 0.01102,-2.01744 0.308681,-3.78133 0.297656,-1.77492 0.859896,-3.40651 0.573263,-1.6316 1.411111,-3.175 0.837847,-1.55443 1.951302,-3.14193 h -8.058768 v -2.30408 h 10.660504 v 2.55764 q -0.881945,1.02526 -1.576476,2.17179 -0.694531,1.1355 -1.212673,2.3151 -0.518143,1.1796 -0.881945,2.37023 -0.363802,1.19062 -0.595312,2.32613 -0.220487,1.12447 -0.33073,2.16076 -0.09922,1.03628 -0.09922,1.9072 z"
         style="font-style:normal;font-variant:normal;font-weight:normal;font-stretch:normal;font-size:22.57777786px;font-family:Overpass;-inkscape-font-specification:Overpass;text-align:center;text-anchor:middle;stroke-width:0.26458332"
         id="path158" />
    </g>
    <path
       style="opacity:1;vector-effect:none;fill:#000000;fill-opacity:1;stroke:none;stroke-width:0.20631;stroke-linecap:square;stroke-linejoin:miter;stroke-miterlimit:4;stroke-dasharray:none;stroke-dashoffset:0;stroke-opacity:1;marker:none"
       d="m 21.695833,254.40207 1e-6,1.5875 h 0.79375 l -1e-6,3.70417 h -0.79375 v 1.5875 h 2.910417 v -1.5875 h -0.529167 v -2.91042 l 2.381251,2.38125 2.381249,-2.38125 v 2.91042 h -0.529167 v 1.5875 h 2.910417 v -1.5875 h -0.79375 l 1e-6,-3.70417 h 0.79375 l -1e-6,-1.5875 h -0.79375 -1.5875 l -2.38125,2.38125 -2.38125,-2.38125 h -1.5875 z"
       id="rect76"
       inkscape:connector-curvature="0"
       sodipodi:nodetypes="ccccccccccccccccccccccccccc" />
  </g>
</svg>
