<?xml version="1.0" encoding="UTF-8" standalone="no"?>
<!-- Created with Inkscape (http://www.inkscape.org/) -->

<svg
   xmlns:dc="http://purl.org/dc/elements/1.1/"
   xmlns:cc="http://creativecommons.org/ns#"
   xmlns:rdf="http://www.w3.org/1999/02/22-rdf-syntax-ns#"
   xmlns:svg="http://www.w3.org/2000/svg"
   xmlns="http://www.w3.org/2000/svg"
   xmlns:sodipodi="http://sodipodi.sourceforge.net/DTD/sodipodi-0.dtd"
   xmlns:inkscape="http://www.inkscape.org/namespaces/inkscape"
   width="240"
   height="200"
   viewBox="0 0 63.499998 52.916668"
   version="1.1"
   id="svg8"
   inkscape:version="0.92.3 (3ce5693, 2018-03-11)"
   sodipodi:docname="us131.svg">
  <defs
     id="defs2" />
  <sodipodi:namedview
     id="base"
     pagecolor="#ffffff"
     bordercolor="#666666"
     borderopacity="1.0"
     inkscape:pageopacity="0.0"
     inkscape:pageshadow="2"
     inkscape:zoom="2"
     inkscape:cx="86.335107"
     inkscape:cy="104.46614"
     inkscape:document-units="mm"
     inkscape:current-layer="layer1"
     showgrid="true"
     units="px"
     inkscape:pagecheckerboard="true"
     inkscape:window-width="1280"
     inkscape:window-height="927"
     inkscape:window-x="0"
     inkscape:window-y="27"
     inkscape:window-maximized="1"
     inkscape:snap-text-baseline="true"
     fit-margin-top="0"
     fit-margin-left="0"
     fit-margin-right="0"
     fit-margin-bottom="0"
     inkscape:object-paths="true"
     inkscape:snap-smooth-nodes="true">
    <inkscape:grid
       type="xygrid"
       id="grid10"
       originx="0"
       originy="-9.5548505e-06" />
  </sodipodi:namedview>
  <metadata
     id="metadata5">
    <rdf:RDF>
      <cc:Work
         rdf:about="">
        <dc:format>image/svg+xml</dc:format>
        <dc:type
           rdf:resource="http://purl.org/dc/dcmitype/StillImage" />
        <dc:title></dc:title>
      </cc:Work>
    </rdf:RDF>
  </metadata>
  <g
     inkscape:label="Layer 1"
     inkscape:groupmode="layer"
     id="layer1"
     transform="translate(0,-244.08331)">
    <path
       style="opacity:1;vector-effect:none;fill:#ffffff;fill-opacity:1;stroke:none;stroke-width:3.17499995;stroke-linecap:butt;stroke-linejoin:miter;stroke-miterlimit:4;stroke-dasharray:none;stroke-dashoffset:0;stroke-opacity:1"
       d="m 11.90625,248.05206 -9.2604167,9.26042 c 0,0 2.6458333,2.64583 2.6458333,7.9375 0,5.29166 -2.6458333,5.29166 -2.6458333,13.22916 0,7.9375 7.9374997,10.58334 11.9062497,10.58334 H 23.8125 c 2.645833,0 6.10336,2.13461 7.9375,3.96875 1.834139,-1.83414 5.291666,-3.96875 7.9375,-3.96875 h 9.260416 c 3.96875,0 11.90625,-2.64584 11.90625,-10.58334 0,-7.9375 -2.645833,-7.9375 -2.645833,-13.22916 0,-5.29167 2.645833,-7.9375 2.645833,-7.9375 l -9.260417,-9.26042 c 0,0 -2.645833,2.64583 -9.260416,2.64583 -6.614583,0 -10.583333,-2.64583 -10.583333,-2.64583 0,0 -3.96875,2.64583 -10.583334,2.64583 -6.614583,0 -9.260416,-2.64583 -9.260416,-2.64583 z"
       id="path1432-8"
       inkscape:connector-curvature="0" />
    <g
       aria-label="131"
       style="font-style:normal;font-weight:normal;font-size:10.58289909px;line-height:1.25;font-family:sans-serif;letter-spacing:0px;word-spacing:0px;fill:#000000;fill-opacity:1;stroke:none;stroke-width:0.26457247"
       id="text1482"
       transform="matrix(1.3164643,0,0,1.3164643,-5.2886747,-88.966001)">
      <path
         d="m 14.919899,281.12497 v -13.79084 h -2.914431 v -1.95949 q 0.644895,0 1.202978,-0.0992 0.558082,-0.0992 1.004548,-0.33485 0.458868,-0.23563 0.793718,-0.62009 0.334849,-0.39686 0.520877,-0.97974 h 2.033901 v 17.78423 z"
         style="font-style:normal;font-variant:normal;font-weight:normal;font-stretch:normal;font-size:25.39895821px;font-family:Overpass;-inkscape-font-specification:Overpass;stroke-width:0.26457247"
         id="path1484"
         inkscape:connector-curvature="0" />
      <path
         d="m 28.871964,281.43502 q -1.178175,0 -2.170322,-0.29765 -0.979745,-0.28524 -1.76106,-0.81852 -0.781316,-0.54568 -1.364202,-1.28979 -0.582886,-0.75651 -0.954941,-1.68665 l 2.467965,-0.99215 q 0.310046,0.69451 0.719306,1.17818 0.421663,0.48367 0.917736,0.79371 0.496073,0.29765 1.041754,0.43407 0.545681,0.13642 1.103764,0.13642 0.719306,0 1.3518,-0.16122 0.632493,-0.17363 1.103763,-0.52088 0.47127,-0.35965 0.74411,-0.90534 0.285242,-0.54568 0.285242,-1.31459 0,-0.58289 -0.198429,-1.09136 -0.186028,-0.52088 -0.60769,-0.90534 -0.409261,-0.39685 -1.054156,-0.62009 -0.644896,-0.22323 -1.550229,-0.22323 h -1.364202 v -2.54238 h 1.364202 q 0.620091,0 1.116165,-0.17362 0.508475,-0.18603 0.868128,-0.49608 0.359653,-0.32244 0.558083,-0.75651 0.198429,-0.44646 0.198429,-0.97974 0,-1.24019 -0.719306,-1.92229 -0.706905,-0.6945 -2.09591,-0.6945 -0.632494,0 -1.128567,0.17363 -0.496074,0.16122 -0.880531,0.43406 -0.372055,0.27284 -0.657297,0.6449 -0.285242,0.35965 -0.483672,0.74411 l -2.455563,-0.93014 q 0.310046,-0.80612 0.830923,-1.46342 0.533279,-0.6697 1.240184,-1.14097 0.719306,-0.48367 1.62464,-0.74411 0.905334,-0.26044 1.984294,-0.26044 1.202978,0 2.207526,0.39686 1.016951,0.38446 1.748659,1.05416 0.731708,0.6697 1.128567,1.56263 0.40926,0.88053 0.40926,1.88508 0,1.24018 -0.570484,2.25713 -0.558083,1.00455 -1.723855,1.59984 0.669699,0.27284 1.21538,0.6697 0.545681,0.38446 0.930137,0.89293 0.384457,0.50848 0.595289,1.14097 0.210831,0.63249 0.210831,1.38901 0,1.33939 -0.47127,2.38115 -0.47127,1.02935 -1.302193,1.73625 -0.830923,0.70691 -1.971891,1.06656 -1.140969,0.35966 -2.480367,0.35966 z"
         style="font-style:normal;font-variant:normal;font-weight:normal;font-stretch:normal;font-size:25.39895821px;font-family:Overpass;-inkscape-font-specification:Overpass;stroke-width:0.26457247"
         id="path1486"
         inkscape:connector-curvature="0" />
      <path
         d="m 40.566894,281.12497 v -13.79084 h -2.914431 v -1.95949 q 0.644896,0 1.202978,-0.0992 0.558083,-0.0992 1.004549,-0.33485 0.458868,-0.23563 0.793717,-0.62009 0.33485,-0.39686 0.520877,-0.97974 h 2.033901 v 17.78423 z"
         style="font-style:normal;font-variant:normal;font-weight:normal;font-stretch:normal;font-size:25.39895821px;font-family:Overpass;-inkscape-font-specification:Overpass;stroke-width:0.26457247"
         id="path1488"
         inkscape:connector-curvature="0" />
    </g>
  </g>
</svg>
