<?xml version="1.0" encoding="UTF-8" standalone="no"?>
<!-- Created with Inkscape (http://www.inkscape.org/) -->

<svg
   xmlns:dc="http://purl.org/dc/elements/1.1/"
   xmlns:cc="http://creativecommons.org/ns#"
   xmlns:rdf="http://www.w3.org/1999/02/22-rdf-syntax-ns#"
   xmlns:svg="http://www.w3.org/2000/svg"
   xmlns="http://www.w3.org/2000/svg"
   xmlns:sodipodi="http://sodipodi.sourceforge.net/DTD/sodipodi-0.dtd"
   xmlns:inkscape="http://www.inkscape.org/namespaces/inkscape"
   width="200"
   height="200"
   viewBox="0 0 52.916665 52.916668"
   version="1.1"
   id="svg8"
   inkscape:version="0.92.3 (3ce5693, 2018-03-11)"
   sodipodi:docname="i35w.svg">
  <defs
     id="defs2" />
  <sodipodi:namedview
     id="base"
     pagecolor="#ffffff"
     bordercolor="#666666"
     borderopacity="1.0"
     inkscape:pageopacity="0.0"
     inkscape:pageshadow="2"
     inkscape:zoom="2"
     inkscape:cx="88.28039"
     inkscape:cy="52.974504"
     inkscape:document-units="mm"
     inkscape:current-layer="layer1"
     showgrid="false"
     units="px"
     inkscape:pagecheckerboard="true"
     inkscape:window-width="1280"
     inkscape:window-height="927"
     inkscape:window-x="0"
     inkscape:window-y="27"
     inkscape:window-maximized="1"
     inkscape:snap-text-baseline="true">
    <inkscape:grid
       type="xygrid"
       id="grid10" />
  </sodipodi:namedview>
  <metadata
     id="metadata5">
    <rdf:RDF>
      <cc:Work
         rdf:about="">
        <dc:format>image/svg+xml</dc:format>
        <dc:type
           rdf:resource="http://purl.org/dc/dcmitype/StillImage" />
        <dc:title></dc:title>
      </cc:Work>
    </rdf:RDF>
  </metadata>
  <g
     inkscape:label="Layer 1"
     inkscape:groupmode="layer"
     id="layer1"
     transform="translate(0,-244.08332)">
    <path
       style="fill:#ffffff;stroke:none;stroke-width:0.26458332px;stroke-linecap:butt;stroke-linejoin:miter;stroke-opacity:1"
       d="M 26.458333,294.35415 C 6.6145833,290.3854 -5.2916667,266.5729 9.2604166,246.72915 c 5.2916664,1.32292 9.2604164,2.64584 17.1979164,0 7.9375,2.64584 11.90625,1.32292 17.197916,0 14.552084,19.84375 2.645834,43.65625 -17.197916,47.625 z"
       id="path3726"
       inkscape:connector-curvature="0"
       sodipodi:nodetypes="ccccc" />
    <path
       style="fill:#003f87;fill-opacity:1;stroke:none;stroke-width:0.94444424px;stroke-linecap:butt;stroke-linejoin:miter;stroke-opacity:1"
       d="M 38.611328 15 C 37.395137 16.658443 36.24826 18.327116 35.134766 20 L 62.183594 20 C 54.181005 19.114772 46.844095 17.05819 38.611328 15 z M 100 15 C 91.709051 17.763658 84.636954 19.307496 78.298828 20 L 121.70117 20 C 115.36305 19.307496 108.29095 17.763658 100 15 z M 161.38867 15 C 153.1559 17.05819 145.81899 19.114772 137.81641 20 L 164.86523 20 C 163.75174 18.327116 162.60486 16.658443 161.38867 15 z M 19.130859 55 C 3.2721063 114.70888 42.197151 173.43944 100 185 C 157.80285 173.43944 196.72789 114.70888 180.86914 55 L 19.130859 55 z "
       transform="matrix(0.26458333,0,0,0.26458333,0,244.08332)"
       id="path3726-7" />
    <path
       style="opacity:1;vector-effect:none;fill:#af1e2d;fill-opacity:1;stroke:none;stroke-width:0.77975434;stroke-linecap:square;stroke-linejoin:miter;stroke-miterlimit:4;stroke-dasharray:none;stroke-dashoffset:0;stroke-opacity:1;marker:none"
       d="M 38.611328 15 C 30.238693 26.417231 24.333869 38.202607 20.591797 50 L 179.4082 50 C 175.66613 38.202607 169.76131 26.417231 161.38867 15 C 142.49978 19.722217 128.33333 24.444472 100 15 C 71.66667 24.444472 57.500209 19.722217 38.611328 15 z "
       transform="matrix(0.26458333,0,0,0.26458333,0,244.08332)"
       id="path3726-7-5" />
    <g
       aria-label="INTERSTATE"
       style="font-style:normal;font-weight:normal;font-size:10.58333302px;line-height:1.25;font-family:sans-serif;letter-spacing:0px;word-spacing:0px;fill:#000000;fill-opacity:1;stroke:none;stroke-width:0.26458332"
       id="text3838">
      <path
         d="m 10.646724,255.4604 v -3.95221 h 0.587044 v 3.95221 z"
         style="font-style:normal;font-variant:normal;font-weight:normal;font-stretch:normal;font-size:5.64444447px;font-family:Overpass;-inkscape-font-specification:Overpass;text-align:center;text-anchor:middle;fill:#ffffff;stroke-width:0.26458332"
         id="path50" />
      <path
         d="m 14.720205,255.4604 -1.708768,-2.68166 -0.159852,-0.29214 0.01654,0.29214 v 2.68166 h -0.587044 v -3.95221 h 0.592556 l 1.667427,2.63756 0.162608,0.30317 -0.01654,-0.29765 v -2.64308 h 0.587044 v 3.95221 z"
         style="font-style:normal;font-variant:normal;font-weight:normal;font-stretch:normal;font-size:5.64444447px;font-family:Overpass;-inkscape-font-specification:Overpass;text-align:center;text-anchor:middle;fill:#ffffff;stroke-width:0.26458332"
         id="path52" />
      <path
         d="m 17.746377,252.07319 v 3.38721 h -0.587045 v -3.38721 h -1.118967 v -0.565 h 2.822222 v 0.565 z"
         style="font-style:normal;font-variant:normal;font-weight:normal;font-stretch:normal;font-size:5.64444447px;font-family:Overpass;-inkscape-font-specification:Overpass;text-align:center;text-anchor:middle;fill:#ffffff;stroke-width:0.26458332"
         id="path54" />
      <path
         d="m 19.623265,255.4604 v -3.95221 h 2.450152 v 0.55397 h -1.863108 v 1.08314 h 1.204405 v 0.55397 h -1.204405 v 1.20716 h 1.987131 v 0.55397 z"
         style="font-style:normal;font-variant:normal;font-weight:normal;font-stretch:normal;font-size:5.64444447px;font-family:Overpass;-inkscape-font-specification:Overpass;text-align:center;text-anchor:middle;fill:#ffffff;stroke-width:0.26458332"
         id="path56" />
      <path
         d="m 23.018751,255.4604 v -3.95221 h 1.66467 q 0.363802,0 0.609093,0.0992 0.24529,0.0992 0.394119,0.26458 0.148828,0.16261 0.209461,0.37207 0.06339,0.20946 0.06339,0.43271 0,0.17087 -0.04961,0.34451 -0.04961,0.17363 -0.154341,0.32797 -0.101974,0.15158 -0.264583,0.27009 -0.162608,0.11576 -0.388607,0.17639 l 0.813043,1.66467 h -0.672483 l -0.777213,-1.61506 h -0.859896 v 1.61506 z m 1.67845,-2.18005 q 0.184657,0 0.308681,-0.0496 0.124023,-0.0524 0.201193,-0.13781 0.07717,-0.0854 0.110243,-0.19292 0.03307,-0.10749 0.03307,-0.22324 0,-0.10198 -0.03032,-0.20947 -0.02756,-0.10748 -0.101974,-0.19568 -0.07441,-0.0882 -0.201194,-0.14331 -0.12678,-0.0551 -0.319705,-0.0551 h -1.091406 v 1.20716 z"
         style="font-style:normal;font-variant:normal;font-weight:normal;font-stretch:normal;font-size:5.64444447px;font-family:Overpass;-inkscape-font-specification:Overpass;text-align:center;text-anchor:middle;fill:#ffffff;stroke-width:0.26458332"
         id="path58" />
      <path
         d="m 28.679731,252.40667 q -0.03583,-0.0854 -0.09922,-0.1571 -0.06339,-0.0744 -0.15434,-0.12678 -0.09095,-0.0551 -0.209462,-0.0854 -0.115755,-0.0303 -0.259071,-0.0303 -0.283876,0 -0.443728,0.12402 -0.159853,0.12403 -0.159853,0.35002 0,0.14056 0.0882,0.23978 0.08819,0.0965 0.23151,0.17088 0.143316,0.0744 0.325217,0.1378 0.184657,0.0606 0.374827,0.13505 0.192925,0.0717 0.374826,0.16812 0.184657,0.0937 0.327973,0.23151 0.143316,0.13505 0.23151,0.32798 0.0882,0.19017 0.0882,0.4575 0,0.28388 -0.104731,0.50437 -0.101975,0.21773 -0.283876,0.36931 -0.181901,0.14883 -0.429948,0.22876 -0.245291,0.0772 -0.529166,0.0772 -0.264584,0 -0.496094,-0.0689 -0.228755,-0.0661 -0.416168,-0.19017 -0.184657,-0.12678 -0.319705,-0.30316 -0.135047,-0.17915 -0.209461,-0.39964 l 0.553971,-0.20119 q 0.06063,0.13229 0.148828,0.24254 0.09095,0.11024 0.206706,0.19017 0.115755,0.0772 0.253559,0.12126 0.14056,0.0441 0.300412,0.0441 0.159853,0 0.292144,-0.0386 0.132292,-0.0386 0.225998,-0.11575 0.09371,-0.0772 0.146073,-0.19017 0.05236,-0.11576 0.05236,-0.26458 0,-0.17639 -0.08819,-0.2949 -0.0882,-0.12127 -0.231511,-0.20947 -0.143316,-0.0882 -0.327973,-0.15434 -0.181901,-0.0661 -0.374826,-0.13504 -0.19017,-0.0689 -0.374827,-0.15434 -0.181901,-0.0854 -0.325217,-0.20947 -0.143316,-0.12402 -0.23151,-0.29765 -0.08819,-0.17363 -0.08819,-0.42444 0,-0.20946 0.08268,-0.39687 0.08544,-0.18742 0.24529,-0.32798 0.159853,-0.14331 0.394119,-0.22599 0.234267,-0.0827 0.534679,-0.0827 0.250803,0 0.454753,0.0606 0.203949,0.0579 0.355534,0.16261 0.15434,0.10473 0.256315,0.24804 0.101975,0.14332 0.15434,0.31144 z"
         style="font-style:normal;font-variant:normal;font-weight:normal;font-stretch:normal;font-size:5.64444447px;font-family:Overpass;-inkscape-font-specification:Overpass;text-align:center;text-anchor:middle;fill:#ffffff;stroke-width:0.26458332"
         id="path60" />
      <path
         d="m 31.692123,252.07319 v 3.38721 h -0.587044 v -3.38721 h -1.118967 v -0.565 h 2.822222 v 0.565 z"
         style="font-style:normal;font-variant:normal;font-weight:normal;font-stretch:normal;font-size:5.64444447px;font-family:Overpass;-inkscape-font-specification:Overpass;text-align:center;text-anchor:middle;fill:#ffffff;stroke-width:0.26458332"
         id="path62" />
      <path
         d="m 35.691191,255.4604 -0.314193,-0.9095 h -1.598524 l -0.322461,0.9095 H 32.84692 l 1.427647,-3.95221 h 0.603581 l 1.422136,3.95221 z m -0.975651,-2.77261 q -0.03307,-0.0937 -0.07441,-0.21773 -0.03859,-0.12402 -0.06063,-0.226 -0.02756,0.10198 -0.06615,0.226 -0.03583,0.12127 -0.0689,0.21773 l -0.487825,1.34497 h 1.237478 z"
         style="font-style:normal;font-variant:normal;font-weight:normal;font-stretch:normal;font-size:5.64444447px;font-family:Overpass;-inkscape-font-specification:Overpass;text-align:center;text-anchor:middle;fill:#ffffff;stroke-width:0.26458332"
         id="path64" />
      <path
         d="m 38.042124,252.07319 v 3.38721 H 37.45508 v -3.38721 h -1.118968 v -0.565 h 2.822223 v 0.565 z"
         style="font-style:normal;font-variant:normal;font-weight:normal;font-stretch:normal;font-size:5.64444447px;font-family:Overpass;-inkscape-font-specification:Overpass;text-align:center;text-anchor:middle;fill:#ffffff;stroke-width:0.26458332"
         id="path66" />
      <path
         d="m 39.919012,255.4604 v -3.95221 h 2.450151 v 0.55397 h -1.863107 v 1.08314 h 1.204405 v 0.55397 h -1.204405 v 1.20716 h 1.987131 v 0.55397 z"
         style="font-style:normal;font-variant:normal;font-weight:normal;font-stretch:normal;font-size:5.64444447px;font-family:Overpass;-inkscape-font-specification:Overpass;text-align:center;text-anchor:middle;fill:#ffffff;stroke-width:0.26458332"
         id="path68" />
    </g>
    <g
       aria-label="35W"
       transform="scale(0.93333193,1.0714302)"
       style="font-style:normal;font-weight:normal;font-size:11.33930206px;line-height:1.25;font-family:sans-serif;letter-spacing:0px;word-spacing:0px;fill:#000000;fill-opacity:1;stroke:none;stroke-width:0.28348255"
       id="text23">
      <path
         d="m 13.818594,261.12624 q -0.950848,0 -1.767337,-0.24805 -0.806153,-0.23771 -1.467612,-0.69246 -0.6614597,-0.45475 -1.1678895,-1.09554 -0.4960945,-0.64079 -0.8268242,-1.43661 l 2.5838257,-1.04387 q 0.248047,0.4961 0.558106,0.8475 0.310059,0.34106 0.661459,0.55811 0.351401,0.2067 0.733807,0.29972 0.382406,0.093 0.775148,0.093 0.496094,0 0.899171,-0.12403 0.413412,-0.13436 0.713136,-0.37207 0.299723,-0.24804 0.465088,-0.59944 0.165365,-0.35141 0.165365,-0.80616 0,-0.41341 -0.134359,-0.76481 -0.124023,-0.36174 -0.403077,-0.62012 -0.279053,-0.26872 -0.713135,-0.42375 -0.434083,-0.15503 -1.033531,-0.15503 h -1.436607 v -2.73885 h 1.436607 q 0.806154,0 1.291913,-0.43408 0.485759,-0.44442 0.485759,-1.20923 0,-0.3514 -0.124023,-0.65113 -0.113689,-0.29972 -0.341065,-0.51676 -0.227377,-0.22738 -0.568442,-0.3514 -0.341065,-0.13436 -0.785483,-0.13436 -0.392741,0 -0.713136,0.10335 -0.320394,0.10335 -0.589112,0.28939 -0.268718,0.1757 -0.485759,0.42375 -0.206706,0.24804 -0.372071,0.53743 l -2.5838255,-0.99219 q 0.3203944,-0.69246 0.785483,-1.2609 0.4650885,-0.56845 1.0645365,-0.97152 0.609782,-0.40308 1.343589,-0.62012 0.733806,-0.21704 1.591636,-0.21704 1.033531,0 1.881025,0.32039 0.85783,0.31006 1.467613,0.85783 0.620118,0.54777 0.950848,1.30225 0.341065,0.75448 0.341065,1.62264 0,1.06454 -0.485759,1.88103 -0.485759,0.81649 -1.312584,1.29191 0.475424,0.18604 0.888836,0.51677 0.423748,0.32039 0.733807,0.76481 0.320394,0.43408 0.496094,0.98185 0.186036,0.53744 0.186036,1.16789 0,1.10588 -0.382406,1.96371 -0.372071,0.85783 -1.054201,1.44694 -0.68213,0.58911 -1.643313,0.89917 -0.950848,0.31006 -2.108402,0.31006 z"
         style="font-style:normal;font-variant:normal;font-weight:bold;font-stretch:normal;font-size:21.16669846px;font-family:Overpass;-inkscape-font-specification:'Overpass Bold';text-align:center;letter-spacing:-1.30401969px;text-anchor:middle;fill:#ffffff;stroke-width:0.28348255"
         id="path43" />
      <path
         d="m 21.878358,257.45721 q 0.268718,0.1757 0.578777,0.3514 0.310059,0.16536 0.671795,0.29972 0.372071,0.13436 0.816489,0.21704 0.444418,0.0827 0.981853,0.0827 0.630454,0 1.147219,-0.16537 0.5271,-0.1757 0.899171,-0.49609 0.382406,-0.33073 0.589112,-0.79582 0.206706,-0.46509 0.206706,-1.0542 0,-1.0232 -0.558106,-1.60197 -0.547771,-0.57878 -1.53996,-0.57878 -0.764812,0 -1.302248,0.27905 -0.5271,0.27906 -0.961183,0.75448 l -2.645837,-1.25057 0.382406,-7.45175 h 8.547295 v 2.75952 h -5.901458 l -0.1757,2.68718 q 0.465089,-0.20671 0.992189,-0.34106 0.537436,-0.1447 1.18856,-0.1447 1.20923,0 2.108401,0.39274 0.909507,0.39274 1.508954,1.06454 0.609783,0.66146 0.909507,1.55029 0.299724,0.88884 0.299724,1.88103 0,1.20923 -0.434083,2.18075 -0.423747,0.97152 -1.18856,1.65365 -0.754477,0.67179 -1.798342,1.03353 -1.043866,0.36173 -2.273767,0.36173 -0.837159,0 -1.53996,-0.13436 -0.7028,-0.12402 -1.281577,-0.32039 -0.568442,-0.20671 -1.01286,-0.45476 -0.434082,-0.25838 -0.754477,-0.51676 z"
         style="font-style:normal;font-variant:normal;font-weight:bold;font-stretch:normal;font-size:21.16669846px;font-family:Overpass;-inkscape-font-specification:'Overpass Bold';text-align:center;letter-spacing:-1.30401969px;text-anchor:middle;fill:#ffffff;stroke-width:0.28348255"
         id="path45" />
      <path
         d="m 48.169594,246.04704 -3.203943,14.82082 h -2.666508 l -2.242761,-8.723 q -0.09302,-0.3514 -0.134359,-0.62011 -0.04134,-0.27906 -0.07235,-0.4961 -0.03101,0.21704 -0.08268,0.4961 -0.05168,0.26871 -0.134359,0.59944 l -2.180749,8.74367 h -2.666508 l -3.172937,-14.82082 h 2.945561 l 1.653648,8.34058 q 0.08268,0.38241 0.113688,0.63046 0.04134,0.24805 0.07235,0.47542 0.03101,-0.22737 0.07235,-0.47542 0.04134,-0.25838 0.134359,-0.65113 l 2.036055,-8.31991 h 2.480472 l 2.067061,8.31991 q 0.103353,0.39275 0.144694,0.65113 0.04134,0.24805 0.07235,0.47542 0.03101,-0.22737 0.06201,-0.47542 0.04134,-0.24805 0.124024,-0.63046 l 1.653648,-8.34058 z"
         style="font-style:normal;font-variant:normal;font-weight:bold;font-stretch:normal;font-size:21.16669846px;font-family:Overpass;-inkscape-font-specification:'Overpass Bold';text-align:center;letter-spacing:-1.30401969px;text-anchor:middle;fill:#ffffff;stroke-width:0.28348255"
         id="path47" />
    </g>
  </g>
</svg>
