<?xml version="1.0" encoding="UTF-8" standalone="no"?>
<svg
   xmlns:dc="http://purl.org/dc/elements/1.1/"
   xmlns:cc="http://creativecommons.org/ns#"
   xmlns:rdf="http://www.w3.org/1999/02/22-rdf-syntax-ns#"
   xmlns:svg="http://www.w3.org/2000/svg"
   xmlns="http://www.w3.org/2000/svg"
   xmlns:sodipodi="http://sodipodi.sourceforge.net/DTD/sodipodi-0.dtd"
   xmlns:inkscape="http://www.inkscape.org/namespaces/inkscape"
   width="64"
   height="64"
   viewBox="0 0 16.933333 16.933334"
   version="1.1"
   id="svg8"
   inkscape:version="1.0.1 (3bc2e813f5, 2020-09-07)"
   sodipodi:docname="back-arrow.svg"
   inkscape:export-filename="/home/dmillar/Dropbox/My Projects/interst8/assets/images/logo-512.png"
   inkscape:export-xdpi="245.75999"
   inkscape:export-ydpi="245.75999">
  <defs
     id="defs2" />
  <sodipodi:namedview
     id="base"
     pagecolor="#ffffff"
     bordercolor="#666666"
     borderopacity="1.0"
     inkscape:pageopacity="0.0"
     inkscape:pageshadow="2"
     inkscape:zoom="1"
     inkscape:cx="35.747013"
     inkscape:cy="40.642626"
     inkscape:document-units="px"
     inkscape:current-layer="layer1"
     showgrid="false"
     units="px"
     inkscape:pagecheckerboard="true"
     inkscape:window-width="1600"
     inkscape:window-height="873"
     inkscape:window-x="1280"
     inkscape:window-y="124"
     inkscape:window-maximized="1"
     inkscape:snap-text-baseline="true"
     inkscape:document-rotation="0"
     fit-margin-top="0"
     fit-margin-left="0"
     fit-margin-right="0"
     fit-margin-bottom="0">
    <inkscape:grid
       type="xygrid"
       id="grid10"
       originx="-11.407603"
       originy="-27.860861" />
  </sodipodi:namedview>
  <metadata
     id="metadata5">
    <rdf:RDF>
      <cc:Work
         rdf:about="">
        <dc:format>image/svg+xml</dc:format>
        <dc:type
           rdf:resource="http://purl.org/dc/dcmitype/StillImage" />
        <dc:title></dc:title>
      </cc:Work>
    </rdf:RDF>
  </metadata>
  <g
     inkscape:label="Layer 1"
     inkscape:groupmode="layer"
     id="layer1"
     transform="translate(-11.407603,-271.94418)">
    <g
       id="g3679"
       transform="matrix(0.75059102,0,0,-0.75059102,20.151988,274.7953)"
       style="stroke-width:0.47">
      <path
         d="m 0,0 -0.112,-0.07 -8.463,-6.87 -0.042,-0.041 c -0.134,-0.132 -0.213,-0.316 -0.213,-0.5 0,-0.191 0.076,-0.384 0.214,-0.507 l 0.085,-0.071 8.353,-6.779 0.21,-0.137 c 0.085,-0.035 0.194,-0.066 0.292,-0.066 0.375,0 0.691,0.301 0.691,0.691 l -0.081,0.44 -1.122,4.701 8.278,-0.602 v 4.66 L -0.188,-5.752 1,-0.777 c 0,0 0.015,0.142 0.015,0.166 0,0.375 -0.316,0.689 -0.691,0.689 C 0.211,0.078 0.099,0.053 0,0"
         style="fill:#ffffff;fill-opacity:1;fill-rule:nonzero;stroke:none;stroke-width:0.47"
         id="path3681" />
    </g>
  </g>
</svg>
