<?xml version="1.0" encoding="UTF-8" standalone="no"?>
<!-- Created with Inkscape (http://www.inkscape.org/) -->

<svg
   xmlns:dc="http://purl.org/dc/elements/1.1/"
   xmlns:cc="http://creativecommons.org/ns#"
   xmlns:rdf="http://www.w3.org/1999/02/22-rdf-syntax-ns#"
   xmlns:svg="http://www.w3.org/2000/svg"
   xmlns="http://www.w3.org/2000/svg"
   xmlns:sodipodi="http://sodipodi.sourceforge.net/DTD/sodipodi-0.dtd"
   xmlns:inkscape="http://www.inkscape.org/namespaces/inkscape"
   width="200"
   height="200"
   viewBox="0 0 52.916665 52.916668"
   version="1.1"
   id="svg8"
   inkscape:version="0.92.3 (3ce5693, 2018-03-11)"
   sodipodi:docname="logo-with-bg.svg"
   inkscape:export-filename="/home/dmillar/Dropbox/My Projects/interst8/assets/images/logo-with-bg-512.png"
   inkscape:export-xdpi="245.75999"
   inkscape:export-ydpi="245.75999">
  <defs
     id="defs2" />
  <sodipodi:namedview
     id="base"
     pagecolor="#338844"
     bordercolor="#666666"
     borderopacity="1.0"
     inkscape:pageopacity="1"
     inkscape:pageshadow="2"
     inkscape:zoom="2"
     inkscape:cx="-47.50513"
     inkscape:cy="-30.10043"
     inkscape:document-units="px"
     inkscape:current-layer="layer1"
     showgrid="false"
     units="px"
     inkscape:pagecheckerboard="true"
     inkscape:window-width="1280"
     inkscape:window-height="927"
     inkscape:window-x="0"
     inkscape:window-y="27"
     inkscape:window-maximized="1"
     inkscape:snap-text-baseline="true">
    <inkscape:grid
       type="xygrid"
       id="grid10" />
  </sodipodi:namedview>
  <metadata
     id="metadata5">
    <rdf:RDF>
      <cc:Work
         rdf:about="">
        <dc:format>image/svg+xml</dc:format>
        <dc:type
           rdf:resource="http://purl.org/dc/dcmitype/StillImage" />
        <dc:title />
      </cc:Work>
    </rdf:RDF>
  </metadata>
  <g
     inkscape:label="Layer 1"
     inkscape:groupmode="layer"
     id="layer1"
     transform="translate(0,-244.08332)">
    <path
       inkscape:connector-curvature="0"
       style="fill:#ffffff;fill-opacity:1;stroke:#ffffff;stroke-width:3.17499995;stroke-linecap:butt;stroke-linejoin:miter;stroke-miterlimit:4;stroke-dasharray:none;stroke-opacity:1"
       d="m 10.215914,248.05207 c -2.21526,3.02081 -3.777578,6.13902 -4.7676679,9.26042 H 47.468419 c -0.99009,-3.1214 -2.552407,-6.23961 -4.767668,-9.26042 -0.565274,0.14132 -1.111041,0.28114 -1.651579,0.41703 -0.45516,0.1144 -0.903764,0.22364 -1.35082,0.32711 -0.116194,0.0269 -0.232288,0.0537 -0.3483,0.0796 -0.127682,0.0285 -0.255267,0.0566 -0.382923,0.0837 -0.161396,0.0343 -0.323004,0.0663 -0.484725,0.0982 -0.116708,0.023 -0.233307,0.0462 -0.350367,0.0677 -0.158236,0.0291 -0.317761,0.0554 -0.476972,0.0816 -0.125116,0.0207 -0.249764,0.0428 -0.375687,0.0615 -0.269528,0.0401 -0.540896,0.0761 -0.815454,0.10646 -1.319053,0.14591 -2.707764,0.17001 -4.263824,0 -0.821346,-0.0897 -1.690404,-0.23412 -2.619994,-0.44339 -0.05401,-0.0122 -0.108868,-0.0256 -0.163298,-0.0382 -0.178313,-0.0413 -0.358619,-0.0846 -0.541567,-0.13074 -0.0549,-0.0139 -0.110035,-0.0281 -0.165364,-0.0424 -0.173779,-0.0449 -0.350007,-0.0927 -0.528135,-0.14211 -0.07547,-0.021 -0.150588,-0.0418 -0.226859,-0.0636 -0.156583,-0.0447 -0.316402,-0.0923 -0.476456,-0.14056 -0.09272,-0.028 -0.184111,-0.0546 -0.278019,-0.0837 -0.243605,-0.0756 -0.490159,-0.15426 -0.742074,-0.23823 -0.251915,0.084 -0.498471,0.16262 -0.742074,0.23823 -0.09391,0.0292 -0.185301,0.0558 -0.278019,0.0837 -0.160055,0.0482 -0.319873,0.0959 -0.476457,0.14056 -0.07627,0.0218 -0.15139,0.0426 -0.22686,0.0636 -0.178128,0.0494 -0.354356,0.0972 -0.528133,0.14211 -0.05533,0.0143 -0.110463,0.0285 -0.165364,0.0424 -0.182949,0.0462 -0.363255,0.0895 -0.541569,0.13074 -0.05443,0.0126 -0.109286,0.0261 -0.163298,0.0382 -0.929591,0.20927 -1.798647,0.35365 -2.619995,0.44339 -1.556059,0.17001 -2.94477,0.14591 -4.263822,0 -0.27456,-0.0304 -0.545927,-0.0663 -0.815454,-0.10646 -0.125924,-0.0187 -0.250572,-0.0408 -0.375688,-0.0615 -0.15921,-0.0263 -0.318736,-0.0525 -0.476974,-0.0816 -0.117057,-0.0215 -0.233658,-0.0447 -0.350366,-0.0677 -0.161721,-0.0318 -0.323327,-0.0639 -0.484725,-0.0982 -0.127655,-0.0271 -0.25524,-0.0552 -0.382922,-0.0837 -0.116012,-0.0259 -0.232106,-0.0527 -0.348299,-0.0796 -0.447058,-0.10347 -0.895661,-0.21271 -1.350822,-0.32711 -0.540538,-0.13589 -1.086304,-0.27571 -1.651579,-0.41703 z m -5.1542076,10.58334 c -4.19596137,15.79797 6.1029566,31.3371 21.3966276,34.39583 15.293669,-3.05873 25.592586,-18.59786 21.396625,-34.39583 z"
       id="path3726-7-3" />
    <path
       style="fill:#003f87;fill-opacity:1;stroke:none;stroke-width:0.94444424px;stroke-linecap:butt;stroke-linejoin:miter;stroke-opacity:1"
       d="M 38.611328 15 C 37.395137 16.658443 36.24826 18.327116 35.134766 20 L 62.183594 20 C 54.181005 19.114772 46.844095 17.05819 38.611328 15 z M 100 15 C 91.709051 17.763658 84.636954 19.307496 78.298828 20 L 121.70117 20 C 115.36305 19.307496 108.29095 17.763658 100 15 z M 161.38867 15 C 153.1559 17.05819 145.81899 19.114772 137.81641 20 L 164.86523 20 C 163.75174 18.327116 162.60486 16.658443 161.38867 15 z M 19.130859 55 C 3.2721063 114.70888 42.197151 173.43944 100 185 C 157.80285 173.43944 196.72789 114.70888 180.86914 55 L 19.130859 55 z "
       transform="matrix(0.26458333,0,0,0.26458333,0,244.08332)"
       id="path3726-7" />
    <path
       style="opacity:1;vector-effect:none;fill:#af1e2d;fill-opacity:1;stroke:none;stroke-width:0.77975434;stroke-linecap:square;stroke-linejoin:miter;stroke-miterlimit:4;stroke-dasharray:none;stroke-dashoffset:0;stroke-opacity:1;marker:none"
       d="M 38.611328 15 C 30.238693 26.417231 24.333869 38.202607 20.591797 50 L 179.4082 50 C 175.66613 38.202607 169.76131 26.417231 161.38867 15 C 142.49978 19.722217 128.33333 24.444472 100 15 C 71.66667 24.444472 57.500209 19.722217 38.611328 15 z "
       transform="matrix(0.26458333,0,0,0.26458333,0,244.08332)"
       id="path3726-7-5" />
    <g
       aria-label="INTERST"
       style="font-style:normal;font-weight:normal;font-size:10.58333302px;line-height:1.25;font-family:sans-serif;letter-spacing:0px;word-spacing:0px;fill:#000000;fill-opacity:1;stroke:none;stroke-width:0.26458332"
       id="text3838">
      <path
         d="m 12.78475,255.98956 v -4.94026 h 0.733806 v 4.94026 z"
         style="font-style:normal;font-variant:normal;font-weight:normal;font-stretch:normal;font-size:7.05555534px;font-family:Overpass;-inkscape-font-specification:Overpass;text-align:center;text-anchor:middle;fill:#ffffff;stroke-width:0.26458332"
         id="path28" />
      <path
         d="m 17.876601,255.98956 -2.135959,-3.35207 -0.199815,-0.36518 0.02067,0.36518 v 3.35207 h -0.733805 v -4.94026 h 0.740696 l 2.084282,3.29695 0.203261,0.37896 -0.02067,-0.37207 v -3.30384 h 0.733806 v 4.94026 z"
         style="font-style:normal;font-variant:normal;font-weight:normal;font-stretch:normal;font-size:7.05555534px;font-family:Overpass;-inkscape-font-specification:Overpass;text-align:center;text-anchor:middle;fill:#ffffff;stroke-width:0.26458332"
         id="path30" />
      <path
         d="m 21.659316,251.75554 v 4.23402 h -0.733805 v -4.23402 h -1.398709 v -0.70624 h 3.527778 v 0.70624 z"
         style="font-style:normal;font-variant:normal;font-weight:normal;font-stretch:normal;font-size:7.05555534px;font-family:Overpass;-inkscape-font-specification:Overpass;text-align:center;text-anchor:middle;fill:#ffffff;stroke-width:0.26458332"
         id="path32" />
      <path
         d="m 24.005426,255.98956 v -4.94026 h 3.06269 v 0.69246 h -2.328885 v 1.35392 h 1.505507 v 0.69247 h -1.505507 v 1.50895 h 2.483914 v 0.69246 z"
         style="font-style:normal;font-variant:normal;font-weight:normal;font-stretch:normal;font-size:7.05555534px;font-family:Overpass;-inkscape-font-specification:Overpass;text-align:center;text-anchor:middle;fill:#ffffff;stroke-width:0.26458332"
         id="path34" />
      <path
         d="m 28.249784,255.98956 v -4.94026 h 2.080838 q 0.454752,0 0.761366,0.12402 0.306613,0.12402 0.492648,0.33073 0.186036,0.20326 0.261828,0.46509 0.07924,0.26182 0.07924,0.54088 0,0.21359 -0.06201,0.43063 -0.06201,0.21704 -0.192925,0.40997 -0.127469,0.18948 -0.330729,0.33762 -0.203261,0.14469 -0.485759,0.22049 l 1.016303,2.08083 h -0.840603 l -0.971517,-2.01882 h -1.07487 v 2.01882 z m 2.098063,-2.72507 q 0.230822,0 0.385851,-0.062 0.155029,-0.0655 0.251492,-0.17225 0.09646,-0.1068 0.137804,-0.24116 0.04134,-0.13436 0.04134,-0.27905 0,-0.12747 -0.0379,-0.26183 -0.03445,-0.13436 -0.127469,-0.2446 -0.09302,-0.11025 -0.251492,-0.17915 -0.158474,-0.0689 -0.399631,-0.0689 h -1.364258 v 1.50895 z"
         style="font-style:normal;font-variant:normal;font-weight:normal;font-stretch:normal;font-size:7.05555534px;font-family:Overpass;-inkscape-font-specification:Overpass;text-align:center;text-anchor:middle;fill:#ffffff;stroke-width:0.26458332"
         id="path36" />
      <path
         d="m 35.326011,252.1724 q -0.04479,-0.1068 -0.124023,-0.19637 -0.07924,-0.093 -0.192926,-0.15848 -0.113688,-0.0689 -0.261827,-0.1068 -0.144694,-0.0379 -0.323839,-0.0379 -0.354845,0 -0.55466,0.15503 -0.199816,0.15503 -0.199816,0.43752 0,0.1757 0.110243,0.29973 0.110243,0.12058 0.289388,0.21359 0.179145,0.093 0.406521,0.17226 0.230822,0.0758 0.468533,0.16881 0.241157,0.0896 0.468533,0.21015 0.230822,0.11713 0.409967,0.28939 0.179145,0.16881 0.289388,0.40996 0.110243,0.23772 0.110243,0.57189 0,0.35484 -0.130914,0.63045 -0.127468,0.27216 -0.354845,0.46164 -0.227376,0.18604 -0.537435,0.28595 -0.306613,0.0965 -0.661458,0.0965 -0.330729,0 -0.620117,-0.0861 -0.285943,-0.0827 -0.520209,-0.23771 -0.230822,-0.15847 -0.399632,-0.37896 -0.168809,-0.22393 -0.261827,-0.49954 l 0.692464,-0.25149 q 0.07579,0.16536 0.186036,0.30317 0.113688,0.1378 0.258382,0.23771 0.144694,0.0965 0.316948,0.15158 0.1757,0.0551 0.375516,0.0551 0.199815,0 0.36518,-0.0482 0.165365,-0.0482 0.282498,-0.14469 0.117133,-0.0965 0.18259,-0.23771 0.06546,-0.1447 0.06546,-0.33073 0,-0.22049 -0.110243,-0.36863 -0.110243,-0.15158 -0.289388,-0.26182 -0.179145,-0.11025 -0.409967,-0.19293 -0.227376,-0.0827 -0.468533,-0.16881 -0.237711,-0.0861 -0.468533,-0.19292 -0.227376,-0.1068 -0.406521,-0.26183 -0.179145,-0.15503 -0.289388,-0.37207 -0.110243,-0.21704 -0.110243,-0.53055 0,-0.26182 0.103353,-0.49609 0.106798,-0.23427 0.306613,-0.40997 0.199816,-0.17914 0.492649,-0.28249 0.292833,-0.10336 0.668348,-0.10336 0.313504,0 0.568441,0.0758 0.254937,0.0723 0.444418,0.20326 0.192925,0.13091 0.320393,0.31006 0.127469,0.17914 0.192926,0.38929 z"
         style="font-style:normal;font-variant:normal;font-weight:normal;font-stretch:normal;font-size:7.05555534px;font-family:Overpass;-inkscape-font-specification:Overpass;text-align:center;text-anchor:middle;fill:#ffffff;stroke-width:0.26458332"
         id="path38" />
      <path
         d="m 39.091499,251.75554 v 4.23402 h -0.733805 v -4.23402 h -1.398709 v -0.70624 h 3.527778 v 0.70624 z"
         style="font-style:normal;font-variant:normal;font-weight:normal;font-stretch:normal;font-size:7.05555534px;font-family:Overpass;-inkscape-font-specification:Overpass;text-align:center;text-anchor:middle;fill:#ffffff;stroke-width:0.26458332"
         id="path40" />
    </g>
    <g
       aria-label="8"
       style="font-style:normal;font-weight:normal;font-size:10.58333302px;line-height:1.25;font-family:sans-serif;letter-spacing:0px;word-spacing:0px;fill:#000000;fill-opacity:1;stroke:none;stroke-width:0.26458332"
       id="text23">
      <path
         d="m 26.442831,285.48132 q -1.720825,0 -3.147095,-0.51159 -1.410766,-0.5116 -2.43396,-1.42627 -1.00769,-0.93018 -1.565796,-2.18592 -0.542602,-1.27124 -0.542602,-2.77502 0,-1.02319 0.26355,-1.87585 0.279052,-0.86817 0.759643,-1.5658 0.496094,-0.69763 1.178223,-1.24024 0.697632,-0.5581 1.519287,-0.96118 -1.317749,-0.74414 -2.046387,-1.87585 -0.713134,-1.13172 -0.713134,-2.75952 0,-1.24024 0.48059,-2.29444 0.480591,-1.0697 1.364258,-1.84485 0.883667,-0.79064 2.123902,-1.22473 1.240234,-0.44958 2.759521,-0.44958 1.519287,0 2.759522,0.44958 1.255737,0.43409 2.139404,1.22473 0.883667,0.77515 1.364258,1.84485 0.496093,1.0542 0.496093,2.29444 0,1.5968 -0.728637,2.72851 -0.728638,1.13172 -2.06189,1.90686 0.837158,0.40308 1.519287,0.96118 0.682129,0.54261 1.178223,1.24024 0.496094,0.69763 0.759643,1.5658 0.279053,0.85266 0.279053,1.87585 0,1.50378 -0.558105,2.77502 -0.558106,1.25574 -1.565796,2.18592 -1.007691,0.91467 -2.43396,1.42627 -1.42627,0.51159 -3.147095,0.51159 z m 0,-3.1781 q 0.930176,0 1.705322,-0.27905 0.79065,-0.27905 1.348755,-0.77515 0.573609,-0.51159 0.89917,-1.20923 0.325562,-0.71313 0.325562,-1.55029 0,-0.80615 -0.325562,-1.51929 -0.325561,-0.72863 -0.89917,-1.25573 -0.558105,-0.54261 -1.348755,-0.85266 -0.775146,-0.31006 -1.705322,-0.31006 -0.945679,0 -1.736328,0.31006 -0.775147,0.31005 -1.348755,0.85266 -0.558105,0.5271 -0.868164,1.25573 -0.310059,0.71314 -0.310059,1.51929 0,0.83716 0.310059,1.55029 0.310059,0.69764 0.868164,1.20923 0.573608,0.4961 1.348755,0.77515 0.790649,0.27905 1.736328,0.27905 z m 0,-10.92956 q 0.744141,0 1.364258,-0.21704 0.63562,-0.23255 1.085205,-0.62012 0.449585,-0.40308 0.697632,-0.93018 0.248047,-0.5271 0.248047,-1.11621 0,-0.65112 -0.248047,-1.16272 -0.248047,-0.5271 -0.697632,-0.88366 -0.449585,-0.37207 -1.085205,-0.57361 -0.620117,-0.20154 -1.364258,-0.20154 -0.744141,0 -1.364258,0.20154 -0.620117,0.20154 -1.069702,0.57361 -0.434082,0.35656 -0.682129,0.88366 -0.248047,0.5116 -0.248047,1.16272 0,0.58911 0.248047,1.11621 0.248047,0.5271 0.682129,0.93018 0.449585,0.38757 1.069702,0.62012 0.620117,0.21704 1.364258,0.21704 z"
         style="font-style:normal;font-variant:normal;font-weight:normal;font-stretch:normal;font-size:31.75px;font-family:Overpass;-inkscape-font-specification:Overpass;text-align:center;text-anchor:middle;fill:#ffffff;stroke-width:0.26458332"
         id="path25" />
    </g>
  </g>
</svg>
