<?xml version="1.0" encoding="UTF-8" standalone="no"?>
<!-- Created with Inkscape (http://www.inkscape.org/) -->

<svg
   xmlns:dc="http://purl.org/dc/elements/1.1/"
   xmlns:cc="http://creativecommons.org/ns#"
   xmlns:rdf="http://www.w3.org/1999/02/22-rdf-syntax-ns#"
   xmlns:svg="http://www.w3.org/2000/svg"
   xmlns="http://www.w3.org/2000/svg"
   xmlns:sodipodi="http://sodipodi.sourceforge.net/DTD/sodipodi-0.dtd"
   xmlns:inkscape="http://www.inkscape.org/namespaces/inkscape"
   width="200"
   height="200"
   viewBox="0 0 52.916665 52.916668"
   version="1.1"
   id="svg8"
   inkscape:version="0.92.3 (3ce5693, 2018-03-11)"
   sodipodi:docname="logo-with-bg.svg"
   inkscape:export-filename="/home/dmillar/Dropbox/My Projects/interst8/assets/images/logo-with-bg.png"
   inkscape:export-xdpi="96"
   inkscape:export-ydpi="96">
  <defs
     id="defs2" />
  <sodipodi:namedview
     id="base"
     pagecolor="#338844"
     bordercolor="#666666"
     borderopacity="1.0"
     inkscape:pageopacity="1"
     inkscape:pageshadow="2"
     inkscape:zoom="2"
     inkscape:cx="116.99487"
     inkscape:cy="49.89957"
     inkscape:document-units="px"
     inkscape:current-layer="layer1"
     showgrid="false"
     units="px"
     inkscape:pagecheckerboard="true"
     inkscape:window-width="1280"
     inkscape:window-height="927"
     inkscape:window-x="0"
     inkscape:window-y="27"
     inkscape:window-maximized="1"
     inkscape:snap-text-baseline="true">
    <inkscape:grid
       type="xygrid"
       id="grid10" />
  </sodipodi:namedview>
  <metadata
     id="metadata5">
    <rdf:RDF>
      <cc:Work
         rdf:about="">
        <dc:format>image/svg+xml</dc:format>
        <dc:type
           rdf:resource="http://purl.org/dc/dcmitype/StillImage" />
        <dc:title></dc:title>
      </cc:Work>
    </rdf:RDF>
  </metadata>
  <g
     inkscape:label="Layer 1"
     inkscape:groupmode="layer"
     id="layer1"
     transform="translate(0,-244.08332)">
    <path
       style="fill:#ffffff;stroke:none;stroke-width:0.26458332px;stroke-linecap:butt;stroke-linejoin:miter;stroke-opacity:1"
       d="M 26.458333,294.35415 C 6.6145833,290.3854 -5.2916667,266.5729 9.2604166,246.72915 c 5.2916664,1.32292 9.2604164,2.64584 17.1979164,0 7.9375,2.64584 11.90625,1.32292 17.197916,0 14.552084,19.84375 2.645834,43.65625 -17.197916,47.625 z"
       id="path3726"
       inkscape:connector-curvature="0"
       sodipodi:nodetypes="ccccc" />
    <path
       style="fill:#003f87;fill-opacity:1;stroke:none;stroke-width:0.94444424px;stroke-linecap:butt;stroke-linejoin:miter;stroke-opacity:1"
       d="M 38.611328 15 C 37.395137 16.658443 36.24826 18.327116 35.134766 20 L 62.183594 20 C 54.181005 19.114772 46.844095 17.05819 38.611328 15 z M 100 15 C 91.709051 17.763658 84.636954 19.307496 78.298828 20 L 121.70117 20 C 115.36305 19.307496 108.29095 17.763658 100 15 z M 161.38867 15 C 153.1559 17.05819 145.81899 19.114772 137.81641 20 L 164.86523 20 C 163.75174 18.327116 162.60486 16.658443 161.38867 15 z M 19.130859 55 C 3.2721063 114.70888 42.197151 173.43944 100 185 C 157.80285 173.43944 196.72789 114.70888 180.86914 55 L 19.130859 55 z "
       transform="matrix(0.26458333,0,0,0.26458333,0,244.08332)"
       id="path3726-7" />
    <path
       style="opacity:1;vector-effect:none;fill:#af1e2d;fill-opacity:1;stroke:none;stroke-width:0.77975434;stroke-linecap:square;stroke-linejoin:miter;stroke-miterlimit:4;stroke-dasharray:none;stroke-dashoffset:0;stroke-opacity:1;marker:none"
       d="M 38.611328 15 C 30.238693 26.417231 24.333869 38.202607 20.591797 50 L 179.4082 50 C 175.66613 38.202607 169.76131 26.417231 161.38867 15 C 142.49978 19.722217 128.33333 24.444472 100 15 C 71.66667 24.444472 57.500209 19.722217 38.611328 15 z "
       transform="matrix(0.26458333,0,0,0.26458333,0,244.08332)"
       id="path3726-7-5" />
    <g
       aria-label="INTERST"
       style="font-style:normal;font-weight:normal;font-size:10.58333302px;line-height:1.25;font-family:sans-serif;letter-spacing:0px;word-spacing:0px;fill:#000000;fill-opacity:1;stroke:none;stroke-width:0.26458332"
       id="text3838">
      <path
         d="m 12.78475,255.98956 v -4.94026 h 0.733806 v 4.94026 z"
         style="font-style:normal;font-variant:normal;font-weight:normal;font-stretch:normal;font-size:7.05555534px;font-family:Overpass;-inkscape-font-specification:Overpass;text-align:center;text-anchor:middle;fill:#ffffff;stroke-width:0.26458332"
         id="path28" />
      <path
         d="m 17.876601,255.98956 -2.135959,-3.35207 -0.199815,-0.36518 0.02067,0.36518 v 3.35207 h -0.733805 v -4.94026 h 0.740696 l 2.084282,3.29695 0.203261,0.37896 -0.02067,-0.37207 v -3.30384 h 0.733806 v 4.94026 z"
         style="font-style:normal;font-variant:normal;font-weight:normal;font-stretch:normal;font-size:7.05555534px;font-family:Overpass;-inkscape-font-specification:Overpass;text-align:center;text-anchor:middle;fill:#ffffff;stroke-width:0.26458332"
         id="path30" />
      <path
         d="m 21.659316,251.75554 v 4.23402 h -0.733805 v -4.23402 h -1.398709 v -0.70624 h 3.527778 v 0.70624 z"
         style="font-style:normal;font-variant:normal;font-weight:normal;font-stretch:normal;font-size:7.05555534px;font-family:Overpass;-inkscape-font-specification:Overpass;text-align:center;text-anchor:middle;fill:#ffffff;stroke-width:0.26458332"
         id="path32" />
      <path
         d="m 24.005426,255.98956 v -4.94026 h 3.06269 v 0.69246 h -2.328885 v 1.35392 h 1.505507 v 0.69247 h -1.505507 v 1.50895 h 2.483914 v 0.69246 z"
         style="font-style:normal;font-variant:normal;font-weight:normal;font-stretch:normal;font-size:7.05555534px;font-family:Overpass;-inkscape-font-specification:Overpass;text-align:center;text-anchor:middle;fill:#ffffff;stroke-width:0.26458332"
         id="path34" />
      <path
         d="m 28.249784,255.98956 v -4.94026 h 2.080838 q 0.454752,0 0.761366,0.12402 0.306613,0.12402 0.492648,0.33073 0.186036,0.20326 0.261828,0.46509 0.07924,0.26182 0.07924,0.54088 0,0.21359 -0.06201,0.43063 -0.06201,0.21704 -0.192925,0.40997 -0.127469,0.18948 -0.330729,0.33762 -0.203261,0.14469 -0.485759,0.22049 l 1.016303,2.08083 h -0.840603 l -0.971517,-2.01882 h -1.07487 v 2.01882 z m 2.098063,-2.72507 q 0.230822,0 0.385851,-0.062 0.155029,-0.0655 0.251492,-0.17225 0.09646,-0.1068 0.137804,-0.24116 0.04134,-0.13436 0.04134,-0.27905 0,-0.12747 -0.0379,-0.26183 -0.03445,-0.13436 -0.127469,-0.2446 -0.09302,-0.11025 -0.251492,-0.17915 -0.158474,-0.0689 -0.399631,-0.0689 h -1.364258 v 1.50895 z"
         style="font-style:normal;font-variant:normal;font-weight:normal;font-stretch:normal;font-size:7.05555534px;font-family:Overpass;-inkscape-font-specification:Overpass;text-align:center;text-anchor:middle;fill:#ffffff;stroke-width:0.26458332"
         id="path36" />
      <path
         d="m 35.326011,252.1724 q -0.04479,-0.1068 -0.124023,-0.19637 -0.07924,-0.093 -0.192926,-0.15848 -0.113688,-0.0689 -0.261827,-0.1068 -0.144694,-0.0379 -0.323839,-0.0379 -0.354845,0 -0.55466,0.15503 -0.199816,0.15503 -0.199816,0.43752 0,0.1757 0.110243,0.29973 0.110243,0.12058 0.289388,0.21359 0.179145,0.093 0.406521,0.17226 0.230822,0.0758 0.468533,0.16881 0.241157,0.0896 0.468533,0.21015 0.230822,0.11713 0.409967,0.28939 0.179145,0.16881 0.289388,0.40996 0.110243,0.23772 0.110243,0.57189 0,0.35484 -0.130914,0.63045 -0.127468,0.27216 -0.354845,0.46164 -0.227376,0.18604 -0.537435,0.28595 -0.306613,0.0965 -0.661458,0.0965 -0.330729,0 -0.620117,-0.0861 -0.285943,-0.0827 -0.520209,-0.23771 -0.230822,-0.15847 -0.399632,-0.37896 -0.168809,-0.22393 -0.261827,-0.49954 l 0.692464,-0.25149 q 0.07579,0.16536 0.186036,0.30317 0.113688,0.1378 0.258382,0.23771 0.144694,0.0965 0.316948,0.15158 0.1757,0.0551 0.375516,0.0551 0.199815,0 0.36518,-0.0482 0.165365,-0.0482 0.282498,-0.14469 0.117133,-0.0965 0.18259,-0.23771 0.06546,-0.1447 0.06546,-0.33073 0,-0.22049 -0.110243,-0.36863 -0.110243,-0.15158 -0.289388,-0.26182 -0.179145,-0.11025 -0.409967,-0.19293 -0.227376,-0.0827 -0.468533,-0.16881 -0.237711,-0.0861 -0.468533,-0.19292 -0.227376,-0.1068 -0.406521,-0.26183 -0.179145,-0.15503 -0.289388,-0.37207 -0.110243,-0.21704 -0.110243,-0.53055 0,-0.26182 0.103353,-0.49609 0.106798,-0.23427 0.306613,-0.40997 0.199816,-0.17914 0.492649,-0.28249 0.292833,-0.10336 0.668348,-0.10336 0.313504,0 0.568441,0.0758 0.254937,0.0723 0.444418,0.20326 0.192925,0.13091 0.320393,0.31006 0.127469,0.17914 0.192926,0.38929 z"
         style="font-style:normal;font-variant:normal;font-weight:normal;font-stretch:normal;font-size:7.05555534px;font-family:Overpass;-inkscape-font-specification:Overpass;text-align:center;text-anchor:middle;fill:#ffffff;stroke-width:0.26458332"
         id="path38" />
      <path
         d="m 39.091499,251.75554 v 4.23402 h -0.733805 v -4.23402 h -1.398709 v -0.70624 h 3.527778 v 0.70624 z"
         style="font-style:normal;font-variant:normal;font-weight:normal;font-stretch:normal;font-size:7.05555534px;font-family:Overpass;-inkscape-font-specification:Overpass;text-align:center;text-anchor:middle;fill:#ffffff;stroke-width:0.26458332"
         id="path40" />
    </g>
    <g
       aria-label="8"
       style="font-style:normal;font-weight:normal;font-size:10.58333302px;line-height:1.25;font-family:sans-serif;letter-spacing:0px;word-spacing:0px;fill:#000000;fill-opacity:1;stroke:none;stroke-width:0.26458332"
       id="text23">
      <path
         d="m 26.442831,285.48132 q -1.720825,0 -3.147095,-0.51159 -1.410766,-0.5116 -2.43396,-1.42627 -1.00769,-0.93018 -1.565796,-2.18592 -0.542602,-1.27124 -0.542602,-2.77502 0,-1.02319 0.26355,-1.87585 0.279052,-0.86817 0.759643,-1.5658 0.496094,-0.69763 1.178223,-1.24024 0.697632,-0.5581 1.519287,-0.96118 -1.317749,-0.74414 -2.046387,-1.87585 -0.713134,-1.13172 -0.713134,-2.75952 0,-1.24024 0.48059,-2.29444 0.480591,-1.0697 1.364258,-1.84485 0.883667,-0.79064 2.123902,-1.22473 1.240234,-0.44958 2.759521,-0.44958 1.519287,0 2.759522,0.44958 1.255737,0.43409 2.139404,1.22473 0.883667,0.77515 1.364258,1.84485 0.496093,1.0542 0.496093,2.29444 0,1.5968 -0.728637,2.72851 -0.728638,1.13172 -2.06189,1.90686 0.837158,0.40308 1.519287,0.96118 0.682129,0.54261 1.178223,1.24024 0.496094,0.69763 0.759643,1.5658 0.279053,0.85266 0.279053,1.87585 0,1.50378 -0.558105,2.77502 -0.558106,1.25574 -1.565796,2.18592 -1.007691,0.91467 -2.43396,1.42627 -1.42627,0.51159 -3.147095,0.51159 z m 0,-3.1781 q 0.930176,0 1.705322,-0.27905 0.79065,-0.27905 1.348755,-0.77515 0.573609,-0.51159 0.89917,-1.20923 0.325562,-0.71313 0.325562,-1.55029 0,-0.80615 -0.325562,-1.51929 -0.325561,-0.72863 -0.89917,-1.25573 -0.558105,-0.54261 -1.348755,-0.85266 -0.775146,-0.31006 -1.705322,-0.31006 -0.945679,0 -1.736328,0.31006 -0.775147,0.31005 -1.348755,0.85266 -0.558105,0.5271 -0.868164,1.25573 -0.310059,0.71314 -0.310059,1.51929 0,0.83716 0.310059,1.55029 0.310059,0.69764 0.868164,1.20923 0.573608,0.4961 1.348755,0.77515 0.790649,0.27905 1.736328,0.27905 z m 0,-10.92956 q 0.744141,0 1.364258,-0.21704 0.63562,-0.23255 1.085205,-0.62012 0.449585,-0.40308 0.697632,-0.93018 0.248047,-0.5271 0.248047,-1.11621 0,-0.65112 -0.248047,-1.16272 -0.248047,-0.5271 -0.697632,-0.88366 -0.449585,-0.37207 -1.085205,-0.57361 -0.620117,-0.20154 -1.364258,-0.20154 -0.744141,0 -1.364258,0.20154 -0.620117,0.20154 -1.069702,0.57361 -0.434082,0.35656 -0.682129,0.88366 -0.248047,0.5116 -0.248047,1.16272 0,0.58911 0.248047,1.11621 0.248047,0.5271 0.682129,0.93018 0.449585,0.38757 1.069702,0.62012 0.620117,0.21704 1.364258,0.21704 z"
         style="font-style:normal;font-variant:normal;font-weight:normal;font-stretch:normal;font-size:31.75px;font-family:Overpass;-inkscape-font-specification:Overpass;text-align:center;text-anchor:middle;fill:#ffffff;stroke-width:0.26458332"
         id="path25" />
    </g>
  </g>
</svg>
