<?xml version="1.0" standalone="no"?>
<!DOCTYPE svg PUBLIC "-//W3C//DTD SVG 20010904//EN"
 "http://www.w3.org/TR/2001/REC-SVG-20010904/DTD/svg10.dtd">
<svg version="1.0" xmlns="http://www.w3.org/2000/svg"
 width="700.000000pt" height="700.000000pt" viewBox="0 0 700.000000 700.000000"
 preserveAspectRatio="xMidYMid meet">
<metadata>
Created by potrace 1.11, written by Peter Selinger 2001-2013
</metadata>
<g transform="translate(0.000000,700.000000) scale(0.100000,-0.100000)"
fill="#000000" stroke="none">
<path d="M1333 6451 c-220 -298 -448 -731 -571 -1083 l-42 -118 2780 0 2780 0
-42 118 c-123 352 -351 785 -571 1083 l-19 26 -191 -48 c-417 -106 -654 -142
-922 -141 -301 1 -608 54 -957 165 l-78 25 -77 -25 c-350 -111 -657 -164 -958
-165 -268 -1 -505 35 -922 141 l-191 48 -19 -26z m3346 -392 c44 -24 90 -85
75 -98 -5 -5 -25 -14 -44 -20 -30 -10 -36 -9 -50 8 -23 29 -57 43 -106 43 -72
0 -102 -30 -94 -92 3 -24 39 -47 137 -86 144 -58 193 -110 193 -206 0 -24 -9
-62 -19 -85 -48 -105 -218 -141 -342 -71 -40 22 -103 103 -93 119 3 5 23 14
45 21 40 11 41 11 66 -20 32 -42 72 -62 123 -62 76 0 120 39 120 106 0 41 -48
77 -153 118 -113 44 -160 82 -176 143 -24 90 26 171 127 204 47 15 146 4 191
-22z m-2891 -306 l-3 -328 -45 0 -45 0 -3 328 -2 327 50 0 50 0 -2 -327z m409
108 c76 -120 143 -227 150 -237 9 -15 12 31 12 219 l1 237 50 0 50 0 -2 -327
-3 -328 -45 0 -45 0 -152 239 -153 239 -2 -239 -3 -239 -45 0 -45 0 -3 328 -2
327 49 0 49 0 139 -219z m853 169 l0 -50 -90 0 -90 0 -2 -277 -3 -278 -47 -3
-48 -3 0 280 0 280 -92 3 -93 3 -3 48 -3 47 235 0 236 0 0 -50z m530 5 l0 -44
-152 -3 -153 -3 -3 -87 -3 -88 101 0 100 0 0 -45 0 -44 -97 -3 -98 -3 -3 -97
-3 -98 166 0 165 0 0 -50 0 -50 -210 0 -210 0 0 330 0 330 200 0 200 0 0 -45z
m516 30 c83 -24 124 -82 124 -176 0 -78 -56 -164 -120 -184 -18 -6 -15 -15 45
-135 36 -72 65 -135 65 -140 0 -7 -20 -10 -52 -8 l-52 3 -65 133 -65 132 -73
0 -73 0 0 -135 0 -135 -45 0 -45 0 0 330 0 330 153 0 c106 0 169 -5 203 -15z
m1262 -32 l-3 -48 -92 -3 -93 -3 0 -280 0 -280 -47 3 -48 3 -3 278 -2 277 -90
0 -90 0 0 50 0 50 236 0 235 0 -3 -47z"/>
<path d="M3830 5885 l0 -95 118 0 c122 1 138 5 160 47 23 42 10 101 -27 130
-10 8 -57 12 -133 13 l-118 0 0 -95z"/>
<path d="M661 5033 c-38 -146 -64 -287 -93 -493 -21 -149 -17 -702 5 -860 104
-739 374 -1353 843 -1915 104 -125 347 -366 474 -472 317 -262 690 -475 1082
-619 134 -48 325 -104 446 -130 78 -17 86 -17 165 0 528 112 1091 388 1527
749 127 106 370 347 474 472 469 562 739 1176 843 1915 22 158 26 711 5 860
-29 206 -55 347 -93 493 l-10 37 -2829 0 -2829 0 -10 -37z m3134 -507 c360
-106 576 -358 592 -691 13 -268 -90 -472 -314 -620 -24 -15 -43 -29 -43 -31 0
-2 21 -15 48 -30 141 -81 263 -196 332 -314 122 -208 139 -499 43 -744 -150
-384 -574 -608 -1071 -565 -410 35 -732 259 -847 586 -78 224 -69 470 24 667
67 142 170 252 325 346 l85 53 -67 47 c-131 92 -215 200 -259 335 -24 72 -27
95 -27 230 0 139 2 156 28 230 82 236 252 399 507 486 118 40 193 49 379 45
154 -3 186 -7 265 -30z"/>
<path d="M3348 4125 c-184 -51 -290 -179 -290 -355 -1 -255 260 -428 554 -366
144 31 243 105 300 225 40 83 42 184 8 276 -41 107 -154 195 -288 224 -69 14
-225 13 -284 -4z"/>
<path d="M3360 2954 c-254 -54 -422 -257 -422 -509 1 -240 143 -415 390 -481
76 -20 259 -19 334 0 144 39 258 117 329 227 115 179 87 436 -65 597 -140 150
-353 212 -566 166z"/>
</g>
</svg>
